<?xml version="1.0" standalone="no"?>
<!DOCTYPE svg PUBLIC "-//W3C//DTD SVG 20010904//EN"
 "http://www.w3.org/TR/2001/REC-SVG-20010904/DTD/svg10.dtd">
<svg version="1.0" xmlns="http://www.w3.org/2000/svg"
 width="527.000000pt" height="366.000000pt" viewBox="0 0 527.000000 366.000000"
 preserveAspectRatio="xMidYMid meet">

<g transform="translate(0.000000,366.000000) scale(0.100000,-0.100000)"
fill="#000000" stroke="none">
<path d="M1730 3392 c0 -61 33 -181 71 -256 120 -235 383 -410 727 -481 215
-45 530 -57 792 -29 303 32 451 27 562 -20 52 -22 54 -33 7 -41 -71 -12 -173
-72 -300 -178 -68 -56 -137 -111 -154 -122 -29 -19 -56 -20 -825 -26 -862 -6
-841 -4 -1010 -63 -348 -122 -624 -400 -739 -744 -52 -153 -73 -363 -52 -500
23 -145 88 -289 182 -402 27 -32 49 -62 49 -65 0 -3 -184 -5 -410 -5 l-410 0
0 -22 c0 -37 45 -122 78 -150 74 -62 -10 -59 1407 -56 1239 3 1292 4 1340 22
80 31 153 84 209 155 92 116 227 289 440 564 l208 267 376 0 c373 0 377 0 414
23 44 27 230 268 267 347 22 47 26 69 26 145 -1 115 -9 132 -196 392 -197 276
-228 314 -348 433 -150 149 -288 243 -457 310 -127 51 -224 69 -529 100 -374
39 -550 63 -761 106 -306 61 -590 157 -844 284 l-120 60 0 -48z m2527 -991
c87 -40 136 -96 380 -439 l152 -214 -106 -139 -105 -139 -397 0 -396 0 -87
-113 c-47 -61 -137 -178 -200 -258 -62 -81 -189 -245 -282 -365 -93 -121 -180
-231 -194 -247 l-26 -27 -372 0 c-204 1 -374 3 -377 6 -3 3 19 39 48 79 117
164 185 413 164 602 -26 238 -166 427 -394 533 -89 42 -228 80 -289 80 l-41 0
58 -24 c90 -37 161 -84 226 -150 110 -112 171 -247 191 -428 24 -209 -40 -395
-185 -540 -112 -112 -205 -150 -370 -151 -195 -1 -319 47 -445 173 -87 86
-131 162 -160 276 -24 92 -25 167 -5 291 59 365 318 659 670 761 135 40 191
42 948 42 640 0 739 2 780 16 30 10 105 63 219 155 167 134 268 198 353 225
63 20 192 17 242 -5z"/>
<path d="M4121 2164 c-82 -69 -19 -208 87 -190 133 21 122 216 -13 216 -32 0
-51 -7 -74 -26z"/>
<path d="M1590 1495 l0 -55 50 0 50 0 0 55 0 55 -50 0 -50 0 0 -55z"/>
<path d="M1723 1228 l-123 -123 -57 58 c-56 57 -87 69 -111 45 -28 -28 -13
-60 65 -139 56 -58 83 -79 102 -79 20 0 60 34 173 147 146 146 164 173 136
201 -32 32 -61 14 -185 -110z"/>
<path d="M1160 1065 l0 -55 55 0 55 0 0 55 0 55 -55 0 -55 0 0 -55z"/>
<path d="M2020 1065 l0 -56 53 3 52 3 0 50 0 50 -52 3 -53 3 0 -56z"/>
<path d="M1590 635 l0 -55 50 0 50 0 0 55 0 55 -50 0 -50 0 0 -55z"/>
</g>
</svg>
