<?xml version="1.0" encoding="UTF-8" standalone="no"?>
<!-- Created with Inkscape (http://www.inkscape.org/) -->

<svg
   version="1.1"
   id="svg1"
   width="624"
   height="568"
   viewBox="0 0 624 568"
   xmlns="http://www.w3.org/2000/svg"
   xmlns:svg="http://www.w3.org/2000/svg">
  <defs
     id="defs1" />
  <g
     id="g1">
    <path
       id="path1"
       d="M 0,0 H 468 V 426 H 0 Z"
       style="fill:#ffffff;fill-opacity:1;fill-rule:nonzero;stroke:none"
       transform="scale(1.3333333)" />
    <path
       id="path2"
       d="M 7.09,7.102 H 390 V 418.899 H 7.09 Z"
       style="fill:#f2f2f2;fill-opacity:0.5;fill-rule:nonzero;stroke:none"
       transform="scale(1.3333333)" />
    <path
       id="path3"
       d="M 7.099,-7.102 H 390.5 V -418.899 H 7.099 Z"
       style="fill:none;stroke:#808080;stroke-width:0.399248;stroke-linecap:butt;stroke-linejoin:miter;stroke-miterlimit:10;stroke-dasharray:2.99444, 3.99258, 0.399248, 3.99258;stroke-dashoffset:0;stroke-opacity:0.5"
       transform="scale(1.3316267,-1.3333333)" />
    <path
       id="path4"
       d="m 141.816,255.602 h 141.82 v 156.199 h -141.82 z"
       style="fill:#e6e6e6;fill-opacity:0.5;fill-rule:nonzero;stroke:none"
       transform="scale(1.3333333)" />
    <path
       id="path5"
       d="M 141.998,-255.602 H 284 V -411.801 H 141.998 Z"
       style="fill:none;stroke:#808080;stroke-width:0.399248;stroke-linecap:butt;stroke-linejoin:miter;stroke-miterlimit:10;stroke-dasharray:2.99444, 2.99444;stroke-dashoffset:0;stroke-opacity:0.5"
       transform="scale(1.3316267,-1.3333333)" />
    <path
       id="path6"
       d="m 15.906,125.953 c -0.14,0 -0.586,0 -0.586,0.481 0,0.296 0.211,0.496 0.492,0.496 0.282,0 0.504,-0.164 0.504,-0.52 0,-0.797 -0.832,-1.371 -1.808,-1.371 -1.395,0 -2.508,1.242 -2.508,2.758 0,1.527 1.148,2.699 2.496,2.699 1.586,0 1.938,-1.43 1.938,-1.535 0,-0.117 -0.082,-0.117 -0.118,-0.117 -0.105,0 -0.117,0.035 -0.152,0.187 -0.269,0.844 -0.914,1.207 -1.562,1.207 -0.727,0 -1.7,-0.633 -1.7,-2.453 0,-1.996 1.02,-2.476 1.618,-2.476 0.46,0 1.117,0.175 1.386,0.644 z"
       style="fill:#000000;fill-opacity:1;fill-rule:nonzero;stroke:none"
       transform="scale(1.3333333)" />
    <path
       id="path7"
       d="m 135.336,22.145 c -0.613,-0.165 -1.152,-0.762 -1.152,-1.528 0,-0.832 0.668,-1.594 1.609,-1.594 1.957,0 2.227,1.95 2.297,2.465 0.023,0.141 0.023,0.188 0.14,0.188 0.129,0 0.129,-0.059 0.129,-0.281 v -2.418 c 0,-0.211 0,-0.27 -0.117,-0.27 -0.035,0 -0.082,0 -0.164,0.152 l -0.398,0.727 c -0.575,-0.738 -1.36,-0.879 -1.887,-0.879 -1.328,0 -2.301,1.066 -2.301,2.289 0,0.574 0.199,1.102 0.645,1.57 0.422,0.473 0.843,0.579 1.691,0.801 0.422,0.094 1.078,0.258 1.242,0.328 0.563,0.282 0.938,0.926 0.938,1.598 0,0.891 -0.633,1.75 -1.629,1.75 -0.539,0 -1.277,-0.133 -1.867,-0.648 -0.692,-0.622 -0.739,-1.489 -0.75,-1.879 -0.012,-0.106 -0.117,-0.106 -0.141,-0.106 -0.129,0 -0.129,0.07 -0.129,0.281 v 2.422 c 0,0.211 0,0.27 0.117,0.27 0.071,0 0.082,-0.024 0.176,-0.164 0.047,-0.094 0.293,-0.543 0.387,-0.719 0.433,0.484 1.187,0.883 2.219,0.883 1.336,0 2.308,-1.129 2.308,-2.453 0,-0.731 -0.281,-1.27 -0.597,-1.657 -0.446,-0.543 -0.985,-0.683 -1.454,-0.8 z m 9.508,2.429 c 0,-1.547 -1.172,-2.781 -2.555,-2.781 -1.434,0 -2.57,1.269 -2.57,2.781 0,1.528 1.195,2.68 2.558,2.68 1.407,0 2.567,-1.176 2.567,-2.68 z m -2.555,2.422 c -0.445,0 -0.988,-0.203 -1.328,-0.789 -0.328,-0.527 -0.34,-1.242 -0.34,-1.738 0,-0.457 0,-1.184 0.375,-1.727 0.328,-0.515 0.859,-0.715 1.281,-0.715 0.469,0 0.973,0.223 1.289,0.692 0.375,0.554 0.375,1.304 0.375,1.75 0,0.41 0,1.152 -0.316,1.715 -0.328,0.574 -0.879,0.812 -1.336,0.812 z m 10.723,-8.019 c 0,-0.211 0,-0.27 -0.117,-0.27 -0.071,0 -0.083,0.023 -0.153,0.141 l -0.586,0.949 c -0.539,-0.668 -1.363,-1.09 -2.218,-1.09 -2.192,0 -4.079,1.887 -4.079,4.332 0,2.477 1.911,4.344 4.079,4.344 1.96,0 3.074,-1.703 3.074,-3.031 0,-0.129 0,-0.2 -0.129,-0.2 -0.117,0 -0.129,0.059 -0.129,0.141 -0.117,1.902 -1.504,2.75 -2.664,2.75 -0.832,0 -3.117,-0.508 -3.117,-4.004 0,-3.465 2.25,-3.992 3.105,-3.992 1.254,0 2.36,1.066 2.594,2.863 0.035,0.152 0.035,0.188 0.176,0.188 0.164,0 0.164,-0.036 0.164,-0.282 z m 8.453,11.07 c 0,-0.035 0,-0.059 -0.211,-0.27 -1.195,-1.211 -1.863,-3.183 -1.863,-5.625 0,-2.324 0.562,-4.32 1.945,-5.742 0.129,-0.105 0.129,-0.129 0.129,-0.164 0,-0.07 -0.07,-0.094 -0.117,-0.094 -0.153,0 -1.137,0.86 -1.723,2.032 -0.609,1.211 -0.879,2.5 -0.879,3.968 0,1.071 0.164,2.489 0.785,3.77 0.703,1.445 1.688,2.219 1.817,2.219 0.047,0 0.117,-0.024 0.117,-0.094 z m 5.293,-11.246 c -0.047,-0.141 -0.07,-0.215 -0.246,-0.215 -0.164,0 -0.188,0.035 -0.246,0.226 l -2.496,7.161 c -0.176,0.492 -0.504,0.797 -1.266,0.808 v 0.356 c 0.726,-0.024 0.75,-0.024 1.148,-0.024 0.328,0 0.903,0 1.219,0.024 v -0.356 c -0.504,-0.011 -0.809,-0.258 -0.809,-0.597 0,-0.071 0,-0.094 0.059,-0.246 l 0.551,-1.598 h 3.012 l 0.66,1.879 c 0.07,0.152 0.07,0.176 0.07,0.211 0,0.351 -0.625,0.351 -0.918,0.351 v 0.356 c 0.27,-0.024 1.223,-0.024 1.563,-0.024 0.328,0 1.195,0 1.464,0.024 v -0.356 c -0.773,0 -0.996,0 -1.16,-0.48 z m -0.574,1.207 1.382,3.992 h -2.777 z m 7.211,2.137 c -0.614,-0.165 -1.153,-0.762 -1.153,-1.528 0,-0.832 0.668,-1.594 1.61,-1.594 1.957,0 2.226,1.95 2.296,2.465 0.024,0.141 0.024,0.188 0.141,0.188 0.129,0 0.129,-0.059 0.129,-0.281 v -2.418 c 0,-0.211 0,-0.27 -0.117,-0.27 -0.035,0 -0.082,0 -0.164,0.152 l -0.399,0.727 c -0.574,-0.738 -1.359,-0.879 -1.886,-0.879 -1.329,0 -2.301,1.066 -2.301,2.289 0,0.574 0.199,1.102 0.644,1.57 0.422,0.473 0.848,0.579 1.692,0.801 0.422,0.094 1.078,0.258 1.242,0.328 0.562,0.282 0.937,0.926 0.937,1.598 0,0.891 -0.632,1.75 -1.628,1.75 -0.54,0 -1.278,-0.133 -1.868,-0.648 -0.691,-0.622 -0.738,-1.489 -0.75,-1.879 -0.011,-0.106 -0.117,-0.106 -0.14,-0.106 -0.129,0 -0.129,0.07 -0.129,0.281 v 2.422 c 0,0.211 0,0.27 0.117,0.27 0.07,0 0.082,-0.024 0.176,-0.164 0.047,-0.094 0.293,-0.543 0.386,-0.719 0.434,0.484 1.188,0.883 2.219,0.883 1.336,0 2.309,-1.129 2.309,-2.453 0,-0.731 -0.281,-1.27 -0.598,-1.657 -0.445,-0.543 -0.984,-0.683 -1.453,-0.8 z m 6.613,-2.278 c 0,-0.445 0.035,-0.562 0.937,-0.562 h 0.258 v -0.352 c -0.281,0.024 -1.312,0.024 -1.664,0.024 -0.367,0 -1.41,0 -1.691,-0.024 v 0.352 h 0.257 c 0.903,0 0.938,0.117 0.938,0.562 v 6.352 c 0,0.445 -0.035,0.562 -0.938,0.562 h -0.257 v 0.356 c 0.281,-0.024 1.312,-0.024 1.675,-0.024 0.356,0 1.399,0 1.68,0.024 v -0.356 h -0.258 c -0.902,0 -0.937,-0.117 -0.937,-0.562 z m 9.43,-0.89 c 0,-0.211 0,-0.27 -0.118,-0.27 -0.07,0 -0.082,0.023 -0.152,0.141 l -0.586,0.949 c -0.539,-0.668 -1.363,-1.09 -2.219,-1.09 -2.191,0 -4.078,1.887 -4.078,4.332 0,2.477 1.91,4.344 4.078,4.344 1.961,0 3.075,-1.703 3.075,-3.031 0,-0.129 0,-0.2 -0.129,-0.2 -0.118,0 -0.129,0.059 -0.129,0.141 -0.118,1.902 -1.504,2.75 -2.664,2.75 -0.832,0 -3.118,-0.508 -3.118,-4.004 0,-3.465 2.25,-3.992 3.106,-3.992 1.258,0 2.359,1.066 2.594,2.863 0.035,0.152 0.035,0.188 0.175,0.188 0.165,0 0.165,-0.036 0.165,-0.282 z m 4.039,5.175 c 0,-0.914 -0.129,-2.394 -0.797,-3.781 -0.703,-1.441 -1.68,-2.219 -1.821,-2.219 -0.047,0 -0.105,0.024 -0.105,0.094 0,0.035 0,0.059 0.199,0.27 1.199,1.211 1.879,3.183 1.879,5.625 0,2.324 -0.562,4.32 -1.961,5.742 -0.117,0.105 -0.117,0.129 -0.117,0.164 0,0.07 0.058,0.094 0.105,0.094 0.164,0 1.141,-0.856 1.727,-2.032 0.609,-1.222 0.891,-2.523 0.891,-3.957 z m 8.082,5.977 v -0.445 h -1.161 V 18.598 h 1.161 v -0.446 h -1.606 v 11.977 z m 2.867,-6.797 h 2.027 c 1.395,0 2.672,-0.953 2.672,-2.16 0,-1.164 -1.16,-2.219 -2.766,-2.219 h -4.035 v 0.352 h 0.235 c 0.871,0 0.906,0.117 0.906,0.562 v 6.352 c 0,0.445 -0.035,0.562 -0.906,0.562 h -0.235 v 0.356 c 0.285,-0.024 1.27,-0.024 1.621,-0.024 0.352,0 1.336,0 1.617,0.024 v -0.356 h -0.234 c -0.867,0 -0.902,-0.117 -0.902,-0.562 z m -0.024,-0.293 v -3.254 c 0,-0.398 0.024,-0.48 0.551,-0.48 h 1.125 c 1.934,0 1.934,1.347 1.934,1.867 0,0.504 0,1.867 -1.946,1.867 z m 13.02,1.031 h -0.27 c -0.281,1.868 -0.574,2.711 -2.59,2.711 h -1.628 c -0.532,0 -0.555,-0.082 -0.555,-0.469 v -3.238 h 1.094 c 1.148,0 1.277,0.375 1.277,1.406 h 0.27 v -3.156 h -0.27 c 0,1.031 -0.129,1.406 -1.277,1.406 h -1.094 v -2.921 c 0,-0.399 0.023,-0.481 0.555,-0.481 h 1.593 c 1.758,0 2.121,0.598 2.309,2.324 h 0.258 l -0.305,-2.675 h -6.508 v 0.351 h 0.235 c 0.867,0 0.902,0.117 0.902,0.563 v 6.328 c 0,0.445 -0.035,0.562 -0.902,0.562 h -0.235 v 0.356 h 6.66 z m 5.379,-1.008 c 1.187,-0.273 2.113,-1.035 2.113,-1.949 0,-1.164 -1.352,-2.16 -3.074,-2.16 h -3.574 v 0.352 h 0.234 c 0.867,0 0.902,0.117 0.902,0.562 v 6.352 c 0,0.445 -0.035,0.562 -0.902,0.562 h -0.234 v 0.356 c 0.269,-0.024 1.254,-0.024 1.605,-0.024 0.34,0 1.336,0 1.606,0.024 v -0.356 h -0.235 c -0.867,0 -0.902,-0.117 -0.902,-0.562 v -3.063 h 1.394 c 0.457,0 0.903,0.141 1.231,0.469 0.398,0.457 0.398,0.703 0.398,1.539 0,0.938 0,1.254 0.528,1.77 0.191,0.179 0.683,0.449 1.363,0.449 0.926,0 1.078,-1.035 1.078,-1.293 0,-0.07 0,-0.176 -0.129,-0.176 -0.117,0 -0.117,0.07 -0.129,0.188 -0.058,0.714 -0.41,1.046 -0.785,1.046 -0.551,0 -0.68,-0.566 -0.773,-1.199 -0.012,-0.082 -0.082,-0.597 -0.118,-0.89 -0.082,-0.602 -0.128,-0.989 -0.496,-1.364 -0.129,-0.129 -0.433,-0.457 -1.101,-0.633 z m -1.113,-0.14 h -1.348 v -3.137 c 0,-0.281 0,-0.422 0.258,-0.469 0.105,-0.011 0.468,-0.011 0.703,-0.011 0.972,0 2.496,0 2.496,1.808 0,1.043 -0.563,1.809 -2.109,1.809 z m 11.519,-3.91 h -7.176 l -0.211,2.676 h 0.258 c 0.164,-1.891 0.281,-2.325 2.172,-2.325 0.211,0 0.551,0 0.645,0.024 0.234,0.035 0.246,0.175 0.246,0.457 v 6.363 c 0,0.41 0,0.574 -1.172,0.574 h -0.422 v 0.356 c 0.375,-0.024 1.605,-0.024 2.074,-0.024 0.469,0 1.711,0 2.098,0.024 v -0.356 h -0.434 c -1.172,0 -1.172,-0.164 -1.172,-0.574 v -6.363 c 0,-0.305 0.024,-0.41 0.211,-0.457 0.094,-0.024 0.446,-0.024 0.668,-0.024 1.899,0 2.004,0.434 2.168,2.325 h 0.258 z m 8.281,5.058 h -0.269 c -0.281,1.868 -0.574,2.711 -2.59,2.711 H 237 c -0.527,0 -0.551,-0.082 -0.551,-0.469 v -3.238 h 1.09 c 1.149,0 1.277,0.375 1.277,1.406 h 0.27 v -3.156 h -0.27 c 0,1.031 -0.128,1.406 -1.277,1.406 h -1.09 v -2.921 c 0,-0.399 0.024,-0.481 0.551,-0.481 h 1.594 c 1.758,0 2.121,0.598 2.308,2.324 h 0.258 l -0.305,-2.675 h -6.507 v 0.351 h 0.234 c 0.867,0 0.902,0.117 0.902,0.563 v 6.328 c 0,0.445 -0.035,0.562 -0.902,0.562 h -0.234 v 0.356 h 6.66 z m 12.035,-5.093 c 0,-0.211 0,-0.27 -0.117,-0.27 -0.07,0 -0.082,0.023 -0.152,0.141 l -0.586,0.949 c -0.539,-0.668 -1.359,-1.09 -2.215,-1.09 -2.195,0 -4.082,1.887 -4.082,4.332 0,2.477 1.91,4.344 4.082,4.344 1.957,0 3.07,-1.703 3.07,-3.031 0,-0.129 0,-0.2 -0.128,-0.2 -0.118,0 -0.129,0.059 -0.129,0.141 -0.118,1.902 -1.5,2.75 -2.661,2.75 -0.835,0 -3.121,-0.508 -3.121,-4.004 0,-3.465 2.25,-3.992 3.11,-3.992 1.254,0 2.355,1.066 2.59,2.863 0.035,0.152 0.035,0.188 0.175,0.188 0.164,0 0.164,-0.036 0.164,-0.282 z m 7.805,0.89 c 0,-0.445 0.035,-0.562 0.891,-0.562 h 0.246 v -0.352 c -0.293,0.024 -1.266,0.024 -1.617,0.024 -0.352,0 -1.34,0 -1.633,-0.024 v 0.352 h 0.246 c 0.859,0 0.894,0.117 0.894,0.562 v 2.84 h -3.578 v -2.84 c 0,-0.445 0.035,-0.562 0.903,-0.562 h 0.234 v -0.352 c -0.281,0.024 -1.266,0.024 -1.605,0.024 -0.364,0 -1.348,0 -1.629,-0.024 v 0.352 h 0.234 c 0.867,0 0.902,0.117 0.902,0.562 v 6.352 c 0,0.445 -0.035,0.562 -0.902,0.562 h -0.234 v 0.356 c 0.281,-0.024 1.265,-0.024 1.617,-0.024 0.351,0 1.336,0 1.617,0.024 v -0.356 h -0.234 c -0.868,0 -0.903,-0.117 -0.903,-0.562 v -3.168 h 3.578 v 3.168 c 0,0.445 -0.035,0.562 -0.894,0.562 h -0.246 v 0.356 c 0.293,-0.024 1.281,-0.024 1.621,-0.024 0.363,0 1.336,0 1.629,0.024 v -0.356 h -0.246 c -0.856,0 -0.891,-0.117 -0.891,-0.562 z m 4.231,0 c 0,-0.445 0.035,-0.562 0.937,-0.562 h 0.258 v -0.352 c -0.281,0.024 -1.313,0.024 -1.668,0.024 -0.363,0 -1.406,0 -1.688,-0.024 v 0.352 h 0.258 c 0.903,0 0.938,0.117 0.938,0.562 v 6.352 c 0,0.445 -0.035,0.562 -0.938,0.562 h -0.258 v 0.356 c 0.282,-0.024 1.313,-0.024 1.676,-0.024 0.356,0 1.399,0 1.68,0.024 v -0.356 h -0.258 c -0.902,0 -0.937,-0.117 -0.937,-0.562 z m 4.238,3.465 h 2.027 c 1.395,0 2.672,-0.953 2.672,-2.16 0,-1.164 -1.16,-2.219 -2.766,-2.219 h -4.035 v 0.352 h 0.235 c 0.871,0 0.906,0.117 0.906,0.562 v 6.352 c 0,0.445 -0.035,0.562 -0.906,0.562 h -0.235 v 0.356 c 0.282,-0.024 1.27,-0.024 1.621,-0.024 0.352,0 1.336,0 1.618,0.024 v -0.356 h -0.235 c -0.867,0 -0.902,-0.117 -0.902,-0.562 z m -0.024,-0.293 v -3.254 c 0,-0.398 0.024,-0.48 0.551,-0.48 h 1.125 c 1.934,0 1.934,1.347 1.934,1.867 0,0.504 0,1.867 -1.945,1.867 z m 7.239,-4.887 h -1.606 v 0.446 h 1.16 v 11.086 h -1.16 v 0.445 h 1.606 z"
       style="fill:#000000;fill-opacity:1;fill-rule:nonzero;stroke:none"
       transform="scale(1.3333333)" />
    <path
       id="path8"
       d="m 14.202,-123.809 v 77.215 c 0,2.207 1.787,3.992 3.989,3.992 h 105.616 c 2.206,0 3.993,-1.785 3.993,-3.992 v -77.215 c 0,-2.203 -1.787,-3.992 -3.993,-3.992 H 18.191 c -2.202,0 -3.989,1.789 -3.989,3.992 z"
       style="fill:#fffccc;fill-opacity:1;fill-rule:nonzero;stroke:#000000;stroke-width:0.399248;stroke-linecap:butt;stroke-linejoin:miter;stroke-miterlimit:10;stroke-dasharray:none;stroke-opacity:1"
       transform="scale(1.3316267,-1.3333333)" />
    <path
       id="path9"
       d="M 20.027,58.887 C 19.91,58.723 19.898,58.711 19.641,58.711 h -1.832 v 0.351 c 0.519,0 0.812,0 1.14,0.083 v 6.496 c 0,0.339 0,0.902 -1.14,0.902 v 0.352 c 0.304,-0.024 0.941,-0.024 1.281,-0.024 0.34,0 0.972,0 1.277,0.024 v -0.352 c -1.137,0 -1.137,-0.563 -1.137,-0.902 v -6.305 c 0.094,0.105 0.094,0.129 0.211,0.269 l 4.653,7.114 c 0.129,0.164 0.14,0.176 0.222,0.176 0.106,0 0.129,-0.047 0.141,-0.071 v -6.855 c 0,-0.34 0,-0.907 1.141,-0.907 v -0.351 c -0.317,0.023 -0.953,0.023 -1.282,0.023 -0.339,0 -0.972,0 -1.277,-0.023 v 0.351 c 1.125,0 1.125,0.567 1.125,0.907 v 5.234 z m 13.703,4.945 h -0.269 c -0.281,1.867 -0.574,2.711 -2.59,2.711 h -1.633 c -0.527,0 -0.55,-0.082 -0.55,-0.469 v -3.242 h 1.093 c 1.149,0 1.278,0.375 1.278,1.41 h 0.269 v -3.16 h -0.269 c 0,1.035 -0.129,1.41 -1.278,1.41 H 28.688 V 59.57 c 0,-0.402 0.023,-0.484 0.55,-0.484 h 1.598 c 1.758,0 2.121,0.602 2.309,2.328 h 0.257 l -0.304,-2.68 H 26.59 v 0.352 h 0.234 c 0.867,0 0.903,0.117 0.903,0.566 v 6.328 c 0,0.446 -0.036,0.563 -0.903,0.563 H 26.59 v 0.352 h 6.66 z m 8.79,-1 c 0,-2.477 -1.817,-4.367 -3.895,-4.367 -2.133,0 -3.914,1.914 -3.914,4.367 0,2.43 1.805,4.309 3.902,4.309 2.137,0 3.907,-1.903 3.907,-4.309 z m -3.895,4.039 c -1.219,0 -2.801,-1.148 -2.801,-4.215 0,-2.933 1.664,-3.933 2.789,-3.933 1.188,0 2.793,1.035 2.793,3.933 0,3.114 -1.617,4.215 -2.781,4.215 z m 9.594,-4.051 c 1.183,-0.269 2.109,-1.031 2.109,-1.949 0,-1.16 -1.348,-2.16 -3.07,-2.16 H 43.68 v 0.351 h 0.234 c 0.867,0 0.902,0.118 0.902,0.567 v 6.351 c 0,0.446 -0.035,0.563 -0.902,0.563 H 43.68 v 0.352 c 0.269,-0.024 1.254,-0.024 1.605,-0.024 0.34,0 1.34,0 1.61,0.024 V 66.543 H 46.66 c -0.871,0 -0.906,-0.117 -0.906,-0.563 v -3.066 h 1.398 c 0.457,0 0.903,0.141 1.231,0.469 0.398,0.461 0.398,0.707 0.398,1.539 0,0.941 0,1.258 0.528,1.773 0.187,0.176 0.679,0.446 1.359,0.446 0.926,0 1.078,-1.032 1.078,-1.289 0,-0.071 0,-0.176 -0.129,-0.176 -0.117,0 -0.117,0.07 -0.129,0.187 -0.058,0.715 -0.41,1.043 -0.785,1.043 -0.551,0 -0.68,-0.562 -0.773,-1.195 C 49.918,65.629 49.848,65.109 49.812,64.816 49.73,64.219 49.684,63.832 49.32,63.453 49.191,63.324 48.887,62.996 48.219,62.82 Z m -1.114,-0.14 h -1.351 v -3.133 c 0,-0.285 0,-0.426 0.258,-0.473 0.105,-0.012 0.472,-0.012 0.707,-0.012 0.972,0 2.496,0 2.496,1.809 0,1.047 -0.563,1.809 -2.11,1.809 z m 10.692,-2.782 c 0.105,-0.293 0.316,-0.824 1.242,-0.836 v -0.351 c -0.609,0.023 -0.633,0.023 -1.101,0.023 -0.317,0 -0.915,0 -1.219,-0.023 v 0.351 c 0.609,0.012 0.797,0.344 0.797,0.59 0,0.071 0,0.094 -0.071,0.258 l -2.238,5.906 -2.355,-6.222 c -0.059,-0.129 -0.059,-0.153 -0.059,-0.188 0,-0.344 0.598,-0.344 0.891,-0.344 v -0.351 c -0.282,0.023 -1.2,0.023 -1.539,0.023 -0.34,0 -1.149,0 -1.442,-0.023 v 0.351 c 0.75,0 0.938,0 1.113,0.485 l 2.805,7.371 c 0.059,0.164 0.082,0.223 0.246,0.223 0.176,0 0.188,-0.036 0.27,-0.235 z m 3.68,2.7 c -0.211,0.011 -0.258,0.023 -0.258,0.129 0,0.117 0.058,0.117 0.281,0.117 h 0.551 c 1.008,0 1.465,0.847 1.465,1.996 0,1.562 -0.809,1.984 -1.395,1.984 -0.574,0 -1.559,-0.281 -1.898,-1.066 0.375,0.058 0.726,-0.153 0.726,-0.59 0,-0.34 -0.258,-0.586 -0.586,-0.586 -0.293,0 -0.597,0.164 -0.597,0.621 0,1.07 1.066,1.938 2.39,1.938 1.418,0 2.477,-1.079 2.477,-2.289 0,-1.102 -0.895,-1.973 -2.031,-2.172 1.031,-0.305 1.699,-1.172 1.699,-2.114 0,-0.937 -0.973,-1.632 -2.133,-1.632 -1.195,0 -2.086,0.73 -2.086,1.597 0,0.481 0.375,0.574 0.551,0.574 0.258,0 0.539,-0.175 0.539,-0.539 0,-0.375 -0.281,-0.539 -0.551,-0.539 -0.07,0 -0.094,0 -0.129,0.012 0.457,-0.824 1.582,-0.824 1.641,-0.824 0.387,0 1.172,0.18 1.172,1.351 0,0.235 -0.035,0.907 -0.387,1.422 -0.352,0.528 -0.762,0.563 -1.09,0.574 z m 8.918,2.289 h -0.27 c -0.035,0.199 -0.129,0.859 -0.246,1.047 -0.082,0.117 -0.762,0.117 -1.125,0.117 h -2.219 c 0.328,-0.281 1.055,-1.047 1.375,-1.34 1.817,-1.668 2.485,-2.289 2.485,-3.477 0,-1.382 -1.09,-2.3 -2.473,-2.3 -1.399,0 -2.207,1.187 -2.207,2.207 0,0.613 0.527,0.613 0.562,0.613 0.246,0 0.563,-0.176 0.563,-0.566 0,-0.329 -0.235,-0.551 -0.563,-0.551 -0.105,0 -0.129,0 -0.164,0.011 0.223,-0.82 0.867,-1.375 1.645,-1.375 1.019,0 1.64,0.86 1.64,1.961 0,1.012 -0.586,1.903 -1.265,2.668 l -2.418,2.711 v 0.282 h 4.363 z m 8.398,4.922 c 0,-0.036 0,-0.059 -0.211,-0.274 -1.195,-1.207 -1.863,-3.18 -1.863,-5.621 0,-2.324 0.562,-4.32 1.945,-5.742 0.129,-0.106 0.129,-0.129 0.129,-0.164 0,-0.07 -0.07,-0.094 -0.117,-0.094 -0.153,0 -1.137,0.856 -1.723,2.031 -0.609,1.207 -0.879,2.5 -0.879,3.969 0,1.066 0.164,2.488 0.785,3.77 0.703,1.441 1.688,2.218 1.817,2.218 0.047,0 0.117,-0.023 0.117,-0.093 z m 5.703,-6.989 c 1.184,-0.269 2.109,-1.031 2.109,-1.949 0,-1.16 -1.347,-2.16 -3.074,-2.16 h -3.574 v 0.351 h 0.234 c 0.868,0 0.903,0.118 0.903,0.567 v 6.351 c 0,0.446 -0.035,0.563 -0.903,0.563 h -0.234 v 0.352 c 0.27,-0.024 1.254,-0.024 1.605,-0.024 0.34,0 1.336,0 1.606,0.024 v -0.352 h -0.234 c -0.868,0 -0.903,-0.117 -0.903,-0.563 v -3.066 h 1.395 c 0.457,0 0.906,0.141 1.234,0.469 0.399,0.461 0.399,0.707 0.399,1.539 0,0.941 0,1.258 0.527,1.773 0.187,0.176 0.68,0.446 1.359,0.446 0.926,0 1.078,-1.032 1.078,-1.289 0,-0.071 0,-0.176 -0.128,-0.176 -0.118,0 -0.118,0.07 -0.129,0.187 -0.059,0.715 -0.411,1.043 -0.786,1.043 -0.55,0 -0.679,-0.562 -0.773,-1.195 -0.012,-0.082 -0.082,-0.602 -0.117,-0.895 -0.082,-0.597 -0.129,-0.984 -0.492,-1.363 -0.129,-0.129 -0.434,-0.457 -1.102,-0.633 z m -1.117,-0.14 h -1.348 v -3.133 c 0,-0.285 0,-0.426 0.258,-0.473 0.106,-0.012 0.469,-0.012 0.703,-0.012 0.973,0 2.5,0 2.5,1.809 0,1.047 -0.562,1.809 -2.113,1.809 z m 7.285,-3.051 c 0,-0.449 0.035,-0.567 0.938,-0.567 h 0.257 v -0.351 c -0.281,0.023 -1.312,0.023 -1.664,0.023 -0.363,0 -1.406,0 -1.687,-0.023 v 0.351 h 0.258 c 0.902,0 0.937,0.118 0.937,0.567 v 6.351 c 0,0.446 -0.035,0.563 -0.937,0.563 h -0.258 v 0.352 c 0.281,-0.024 1.312,-0.024 1.676,-0.024 0.351,0 1.394,0 1.675,0.024 v -0.352 h -0.257 c -0.903,0 -0.938,-0.117 -0.938,-0.563 z m 4.121,2.277 c -0.609,-0.164 -1.152,-0.765 -1.152,-1.527 0,-0.832 0.672,-1.598 1.609,-1.598 1.957,0 2.227,1.949 2.297,2.465 0.023,0.145 0.023,0.192 0.141,0.192 0.129,0 0.129,-0.063 0.129,-0.286 v -2.418 c 0,-0.211 0,-0.269 -0.118,-0.269 -0.035,0 -0.082,0 -0.164,0.152 l -0.398,0.731 c -0.574,-0.743 -1.359,-0.883 -1.887,-0.883 -1.328,0 -2.301,1.07 -2.301,2.289 0,0.574 0.2,1.105 0.645,1.574 0.426,0.469 0.848,0.574 1.691,0.797 0.422,0.094 1.078,0.258 1.243,0.328 0.562,0.285 0.937,0.93 0.937,1.598 0,0.894 -0.633,1.75 -1.629,1.75 -0.539,0 -1.277,-0.129 -1.863,-0.645 -0.695,-0.625 -0.742,-1.492 -0.754,-1.879 -0.012,-0.105 -0.117,-0.105 -0.141,-0.105 -0.129,0 -0.129,0.07 -0.129,0.281 v 2.418 c 0,0.211 0,0.27 0.118,0.27 0.07,0 0.082,-0.024 0.175,-0.164 0.047,-0.094 0.293,-0.539 0.387,-0.715 0.438,0.48 1.188,0.879 2.219,0.879 1.336,0 2.308,-1.125 2.308,-2.453 0,-0.727 -0.281,-1.27 -0.597,-1.657 -0.446,-0.539 -0.985,-0.679 -1.453,-0.797 z m 11.817,-3.172 c 0,-0.211 0,-0.269 -0.118,-0.269 -0.07,0 -0.082,0.023 -0.152,0.14 l -0.586,0.954 c -0.539,-0.672 -1.359,-1.094 -2.215,-1.094 -2.191,0 -4.082,1.89 -4.082,4.332 0,2.476 1.914,4.344 4.082,4.344 1.957,0 3.071,-1.703 3.071,-3.028 0,-0.129 0,-0.199 -0.129,-0.199 -0.118,0 -0.129,0.059 -0.129,0.141 -0.117,1.902 -1.5,2.746 -2.66,2.746 -0.832,0 -3.118,-0.504 -3.118,-4.004 0,-3.461 2.25,-3.992 3.106,-3.992 1.254,0 2.355,1.07 2.59,2.867 0.035,0.152 0.035,0.187 0.176,0.187 0.164,0 0.164,-0.035 0.164,-0.281 z m 3.902,5.895 v -0.645 h -3.109 v 0.645 z m 7.961,-4.731 c 0.105,-0.293 0.316,-0.824 1.242,-0.836 v -0.351 c -0.609,0.023 -0.633,0.023 -1.102,0.023 -0.316,0 -0.914,0 -1.218,-0.023 v 0.351 c 0.609,0.012 0.797,0.344 0.797,0.59 0,0.071 0,0.094 -0.071,0.258 l -2.242,5.906 -2.355,-6.222 c -0.059,-0.129 -0.059,-0.153 -0.059,-0.188 0,-0.344 0.598,-0.344 0.891,-0.344 v -0.351 c -0.282,0.023 -1.196,0.023 -1.536,0.023 -0.339,0 -1.148,0 -1.441,-0.023 v 0.351 c 0.75,0 0.938,0 1.113,0.485 l 2.801,7.371 c 0.059,0.164 0.082,0.223 0.246,0.223 0.176,0 0.188,-0.036 0.27,-0.235 z m 4.863,4.016 c 0,-0.918 -0.129,-2.394 -0.797,-3.781 -0.707,-1.445 -1.679,-2.219 -1.82,-2.219 -0.047,0 -0.106,0.024 -0.106,0.094 0,0.035 0,0.058 0.2,0.269 1.199,1.211 1.879,3.184 1.879,5.625 0,2.325 -0.563,4.321 -1.961,5.739 -0.118,0.109 -0.118,0.132 -0.118,0.168 0,0.07 0.059,0.093 0.106,0.093 0.164,0 1.137,-0.859 1.727,-2.031 0.609,-1.223 0.89,-2.527 0.89,-3.957 z"
       style="fill:#000000;fill-opacity:1;fill-rule:nonzero;stroke:none"
       transform="scale(1.3333333)" />
    <path
       id="path10"
       d="m 21.301,-116.707 v 37.453 c 0,2.207 1.787,3.992 3.993,3.992 h 91.414 c 2.206,0 3.993,-1.785 3.993,-3.992 v -37.453 c 0,-2.207 -1.787,-3.992 -3.993,-3.992 H 25.294 c -2.206,0 -3.993,1.785 -3.993,3.992 z"
       style="fill:#ffe6e6;fill-opacity:1;fill-rule:nonzero;stroke:#000000;stroke-width:0.399248;stroke-linecap:butt;stroke-linejoin:miter;stroke-miterlimit:10;stroke-dasharray:none;stroke-opacity:1"
       transform="scale(1.3316267,-1.3333333)" />
    <path
       id="path11"
       d="m 42.438,99.594 h -6.333 v 0.351 h 0.235 c 0.867,0 0.902,0.117 0.902,0.563 v 6.328 c 0,0.449 -0.035,0.566 -0.902,0.566 h -0.235 v 0.352 c 0.282,-0.024 1.348,-0.024 1.711,-0.024 0.411,0 1.465,0 1.821,0.024 v -0.352 H 39.27 c -1.043,0 -1.067,-0.144 -1.067,-0.578 v -2.98 h 1.055 c 1.129,0 1.246,0.398 1.246,1.41 h 0.269 v -3.149 h -0.269 c 0,1 -0.117,1.399 -1.246,1.399 h -1.055 v -3.078 c 0,-0.399 0.024,-0.481 0.551,-0.481 h 1.504 c 1.722,0 2.062,0.633 2.238,2.325 h 0.258 z m 7.64,0 h -6.332 v 0.351 h 0.234 c 0.872,0 0.907,0.117 0.907,0.563 v 6.328 c 0,0.449 -0.035,0.566 -0.907,0.566 h -0.234 v 0.352 c 0.281,-0.024 1.352,-0.024 1.715,-0.024 0.41,0 1.465,0 1.816,0.024 v -0.352 h -0.363 c -1.043,0 -1.066,-0.144 -1.066,-0.578 v -2.98 h 1.054 c 1.125,0 1.243,0.398 1.243,1.41 h 0.269 v -3.149 h -0.269 c 0,1 -0.118,1.399 -1.243,1.399 h -1.054 v -3.078 c 0,-0.399 0.023,-0.481 0.55,-0.481 h 1.5 c 1.723,0 2.063,0.633 2.239,2.325 h 0.258 z m 8.633,0.035 h -7.176 l -0.211,2.676 h 0.258 c 0.164,-1.891 0.281,-2.325 2.168,-2.325 0.211,0 0.551,0 0.645,0.024 0.234,0.035 0.246,0.176 0.246,0.457 v 6.363 c 0,0.41 0,0.578 -1.172,0.578 h -0.422 v 0.352 c 0.375,-0.024 1.605,-0.024 2.074,-0.024 0.469,0 1.711,0 2.098,0.024 v -0.352 h -0.434 c -1.172,0 -1.172,-0.168 -1.172,-0.578 v -6.363 c 0,-0.305 0.024,-0.41 0.211,-0.457 0.094,-0.024 0.446,-0.024 0.668,-0.024 1.903,0 2.008,0.434 2.172,2.325 h 0.258 z m 12.348,-0.035 c 0,-0.211 0,-0.27 -0.118,-0.27 -0.074,0 -0.086,0.024 -0.156,0.141 l -0.586,0.949 c -0.539,-0.668 -1.359,-1.09 -2.215,-1.09 -2.191,0 -4.082,1.891 -4.082,4.332 0,2.477 1.914,4.344 4.082,4.344 1.957,0 3.075,-1.703 3.075,-3.031 0,-0.129 0,-0.199 -0.129,-0.199 -0.121,0 -0.133,0.058 -0.133,0.14 -0.117,1.902 -1.5,2.75 -2.66,2.75 -0.832,0 -3.117,-0.508 -3.117,-4.004 0,-3.465 2.25,-3.992 3.105,-3.992 1.254,0 2.355,1.066 2.59,2.863 0.035,0.153 0.035,0.188 0.176,0.188 0.168,0 0.168,-0.035 0.168,-0.281 z m 9.113,4.097 c 0,-2.476 -1.817,-4.367 -3.891,-4.367 -2.136,0 -3.918,1.914 -3.918,4.367 0,2.43 1.805,4.309 3.907,4.309 2.132,0 3.902,-1.902 3.902,-4.309 z m -3.891,4.039 c -1.219,0 -2.804,-1.152 -2.804,-4.214 0,-2.938 1.668,-3.934 2.793,-3.934 1.183,0 2.789,1.031 2.789,3.934 0,3.109 -1.618,4.214 -2.778,4.214 z m 7.153,-3.781 h 2.027 c 1.394,0 2.676,-0.953 2.676,-2.16 0,-1.164 -1.164,-2.219 -2.77,-2.219 h -4.031 v 0.352 h 0.234 c 0.868,0 0.903,0.117 0.903,0.562 v 6.352 c 0,0.449 -0.035,0.566 -0.903,0.566 h -0.234 v 0.352 c 0.281,-0.024 1.266,-0.024 1.617,-0.024 0.352,0 1.336,0 1.617,0.024 v -0.352 h -0.234 c -0.867,0 -0.902,-0.117 -0.902,-0.566 z m -0.024,-0.293 v -3.254 c 0,-0.398 0.024,-0.48 0.551,-0.48 h 1.125 c 1.934,0 1.934,1.351 1.934,1.867 0,0.504 0,1.867 -1.946,1.867 z m 10.43,0.024 c 1.183,-0.27 2.109,-1.035 2.109,-1.95 0,-1.164 -1.347,-2.16 -3.07,-2.16 h -3.578 v 0.352 h 0.234 c 0.867,0 0.903,0.117 0.903,0.562 v 6.352 c 0,0.449 -0.036,0.566 -0.903,0.566 h -0.234 v 0.352 c 0.269,-0.024 1.254,-0.024 1.609,-0.024 0.34,0 1.336,0 1.606,0.024 v -0.352 h -0.235 c -0.867,0 -0.902,-0.117 -0.902,-0.566 v -3.063 h 1.394 c 0.457,0 0.903,0.141 1.231,0.469 0.398,0.457 0.398,0.703 0.398,1.539 0,0.938 0,1.254 0.528,1.774 0.187,0.175 0.679,0.445 1.359,0.445 0.926,0 1.082,-1.035 1.082,-1.293 0,-0.07 0,-0.176 -0.129,-0.176 -0.121,0 -0.121,0.071 -0.133,0.188 -0.058,0.719 -0.41,1.047 -0.785,1.047 -0.551,0 -0.679,-0.567 -0.773,-1.2 -0.012,-0.082 -0.082,-0.597 -0.117,-0.89 -0.082,-0.602 -0.129,-0.988 -0.493,-1.364 -0.129,-0.128 -0.433,-0.457 -1.101,-0.632 z m -1.113,-0.141 h -1.348 v -3.137 c 0,-0.281 0,-0.422 0.258,-0.468 0.105,-0.012 0.468,-0.012 0.703,-0.012 0.972,0 2.496,0 2.496,1.808 0,1.043 -0.563,1.809 -2.109,1.809 z m 12.824,0.152 c 0,-2.476 -1.817,-4.367 -3.895,-4.367 -2.133,0 -3.914,1.914 -3.914,4.367 0,2.43 1.805,4.309 3.903,4.309 2.136,0 3.906,-1.902 3.906,-4.309 z m -3.895,4.039 c -1.218,0 -2.801,-1.152 -2.801,-4.214 0,-2.938 1.665,-3.934 2.79,-3.934 1.187,0 2.793,1.031 2.793,3.934 0,3.109 -1.618,4.214 -2.782,4.214 z"
       style="fill:#000000;fill-opacity:1;fill-rule:nonzero;stroke:none"
       transform="scale(1.3333333)" />
    <path
       id="path12"
       d="m 24.14,-88.309 v 6.215 c 0,2.207 1.788,3.992 3.994,3.992 h 85.734 c 2.206,0 3.994,-1.785 3.994,-3.992 v -6.215 c 0,-2.203 -1.788,-3.992 -3.994,-3.992 H 28.134 c -2.206,0 -3.994,1.789 -3.994,3.992 z"
       style="fill:#ffb3b3;fill-opacity:1;fill-rule:nonzero;stroke:#000000;stroke-width:0.399248;stroke-linecap:butt;stroke-linejoin:miter;stroke-miterlimit:10;stroke-dasharray:2.99444, 1.99629, 0.399248, 1.99629;stroke-dashoffset:0;stroke-opacity:1"
       transform="scale(1.3316267,-1.3333333)" />
    <path
       id="path13"
       d="m 40,81.785 c 0,-0.129 0,-0.211 -0.105,-0.211 -0.059,0 -0.071,0.012 -0.141,0.117 l -0.402,0.586 c -0.293,-0.304 -0.821,-0.703 -1.582,-0.703 -1.606,0 -2.942,1.293 -2.942,2.887 0,1.621 1.336,2.902 2.953,2.902 1.336,0 2.219,-1.058 2.219,-2.031 0,-0.082 0,-0.152 -0.129,-0.152 -0.094,0 -0.117,0.035 -0.117,0.117 -0.07,1.23 -1.059,1.808 -1.902,1.808 -0.68,0 -2.192,-0.425 -2.192,-2.644 0,-2.137 1.43,-2.617 2.192,-2.617 0.75,0 1.675,0.527 1.878,1.902 0.012,0.07 0.024,0.117 0.129,0.117 C 40,83.863 40,83.816 40,83.664 Z m 5.414,-0.012 h -4.582 v 0.258 h 0.176 c 0.609,0 0.633,0.094 0.633,0.387 v 4.133 c 0,0.293 -0.024,0.39 -0.633,0.39 h -0.176 v 0.258 c 0.68,-0.023 0.691,-0.023 1.23,-0.023 0.376,0 0.95,0 1.313,0.023 v -0.258 h -0.258 c -0.75,0 -0.75,-0.121 -0.75,-0.402 v -1.926 h 0.738 c 0.786,0 0.879,0.25 0.879,0.93 h 0.246 v -2.125 h -0.246 c 0,0.668 -0.093,0.926 -0.879,0.926 h -0.738 v -1.985 c 0,-0.269 0.024,-0.328 0.387,-0.328 h 1.055 c 1.3,0 1.453,0.504 1.593,1.551 h 0.246 z m 5.774,0.821 c 0,-0.199 0,-0.586 0.808,-0.586 V 81.75 c -0.363,0.023 -0.726,0.023 -0.937,0.023 -0.235,0 -0.586,0 -0.938,-0.023 v 0.258 c 0.809,0 0.809,0.387 0.809,0.586 v 2.761 c 0,1.079 -0.821,1.75 -1.629,1.75 -0.434,0 -1.406,-0.25 -1.406,-1.714 v -2.996 c 0,-0.305 0.023,-0.387 0.632,-0.387 h 0.176 V 81.75 c -0.68,0.023 -0.691,0.023 -1.176,0.023 -0.48,0 -0.492,0 -1.172,-0.023 v 0.258 h 0.176 c 0.61,0 0.633,0.082 0.633,0.387 v 2.972 c 0,1.149 0.988,1.996 2.113,1.996 1.078,0 1.911,-0.894 1.911,-1.984 z m 6.636,6.601 c 0.071,0 0.164,0 0.164,-0.093 0,-0.036 -0.011,-0.047 -0.105,-0.145 -1.102,-1.031 -1.371,-2.523 -1.371,-3.754 0,-2.301 0.949,-3.383 1.359,-3.746 0.106,-0.105 0.117,-0.105 0.117,-0.152 0,-0.035 -0.035,-0.094 -0.105,-0.094 -0.129,0 -0.528,0.41 -0.598,0.48 -1.066,1.118 -1.289,2.547 -1.289,3.512 0,1.785 0.75,3.227 1.828,3.992 z m 6.285,-7.41 c 0,-0.129 0,-0.211 -0.105,-0.211 -0.059,0 -0.07,0.012 -0.141,0.117 l -0.398,0.586 c -0.293,-0.304 -0.82,-0.703 -1.582,-0.703 -1.61,0 -2.945,1.293 -2.945,2.887 0,1.621 1.335,2.902 2.957,2.902 1.335,0 2.214,-1.058 2.214,-2.031 0,-0.082 0,-0.152 -0.129,-0.152 -0.093,0 -0.117,0.035 -0.117,0.117 -0.07,1.23 -1.054,1.808 -1.898,1.808 -0.68,0 -2.195,-0.425 -2.195,-2.644 0,-2.137 1.433,-2.617 2.195,-2.617 0.75,0 1.676,0.527 1.875,1.902 0.012,0.07 0.023,0.117 0.129,0.117 0.14,0 0.14,-0.047 0.14,-0.199 z m 3.141,1.985 v 0.257 c 0.543,0 0.613,0.059 0.613,0.446 v 1.386 c 0,0.692 -0.425,1.2 -1.023,1.2 -0.68,0 -0.715,-0.344 -0.715,-0.743 v -2.64 l -1.207,0.094 v 0.257 c 0.609,0 0.609,0.024 0.609,0.739 v 1.199 c 0,0.574 0,1.316 1.266,1.316 0.75,0 1.047,-0.578 1.082,-0.648 h 0.012 v 0.648 l 1.183,-0.082 v -0.258 c -0.539,0 -0.609,-0.062 -0.609,-0.461 v -2.804 z m 4.887,0.07 c 0,-0.117 0,-0.199 -0.106,-0.199 -0.035,0 -0.058,0 -0.187,0.129 -0.012,0 -0.094,0.07 -0.117,0.07 0,0 -0.024,0 -0.071,-0.024 -0.129,-0.093 -0.351,-0.175 -0.715,-0.175 -1.117,0 -1.363,0.597 -1.363,0.984 0,0.402 0.293,0.637 0.317,0.66 0.316,0.235 0.503,0.27 1.035,0.363 0.375,0.071 0.996,0.188 0.996,0.727 0,0.305 -0.211,0.684 -0.949,0.684 -0.801,0 -1.036,-0.625 -1.141,-1.047 -0.024,-0.106 -0.035,-0.153 -0.129,-0.153 -0.129,0 -0.129,0.071 -0.129,0.223 v 0.988 c 0,0.129 0,0.211 0.106,0.211 0.046,0 0.046,-0.011 0.199,-0.164 0.035,-0.035 0.129,-0.14 0.164,-0.176 0.363,0.317 0.726,0.34 0.941,0.34 1.02,0 1.36,-0.59 1.36,-1.117 0,-0.375 -0.223,-0.937 -1.172,-1.113 -0.071,-0.012 -0.52,-0.094 -0.543,-0.094 -0.258,-0.059 -0.621,-0.227 -0.621,-0.543 0,-0.246 0.164,-0.574 0.929,-0.574 0.891,0 0.938,0.644 0.95,0.879 0.011,0.058 0.058,0.082 0.117,0.082 0.129,0 0.129,-0.059 0.129,-0.211 z m 1.98,0.176 h 1.195 v -0.258 h -1.195 v -1.469 h -0.246 c 0,0.731 -0.328,1.481 -1.066,1.504 v 0.223 h 0.715 v 2.183 c 0,0.942 0.714,1.082 1.078,1.082 0.539,0 0.855,-0.484 0.855,-1.082 v -0.445 h -0.246 v 0.434 c 0,0.55 -0.246,0.847 -0.551,0.847 -0.539,0 -0.539,-0.695 -0.539,-0.824 z m 5.805,1.48 c 0,-1 -0.82,-1.855 -1.875,-1.855 -1.059,0 -1.879,0.855 -1.879,1.855 0,0.996 0.855,1.785 1.879,1.785 1.031,0 1.875,-0.789 1.875,-1.785 z m -1.875,1.539 c -0.434,0 -0.766,-0.215 -0.942,-0.496 -0.199,-0.328 -0.222,-0.715 -0.222,-1.113 0,-0.305 0,-0.789 0.246,-1.129 0.211,-0.281 0.543,-0.434 0.918,-0.434 0.422,0 0.762,0.199 0.937,0.481 0.223,0.328 0.223,0.765 0.223,1.082 0,0.363 -0.012,0.808 -0.234,1.136 -0.211,0.317 -0.575,0.473 -0.926,0.473 z m 8.351,-2.258 c 0,-0.644 -0.281,-1.101 -1.152,-1.101 -0.726,0 -1.101,0.504 -1.23,0.738 -0.141,-0.574 -0.598,-0.738 -1.114,-0.738 -0.773,0 -1.136,0.551 -1.242,0.762 H 81.648 V 83.676 L 80.5,83.77 v 0.257 c 0.539,0 0.609,0.059 0.609,0.446 v 2.101 c 0,0.367 -0.105,0.367 -0.609,0.367 v 0.258 c 0.34,-0.023 0.691,-0.023 0.902,-0.023 0.235,0 0.575,0 0.914,0.023 v -0.258 c -0.515,0 -0.609,0 -0.609,-0.367 v -1.441 c 0,-0.848 0.633,-1.235 1.137,-1.235 0.515,0 0.597,0.411 0.597,0.844 v 1.832 c 0,0.367 -0.093,0.367 -0.597,0.367 v 0.258 c 0.34,-0.023 0.691,-0.023 0.902,-0.023 0.234,0 0.574,0 0.914,0.023 v -0.258 c -0.515,0 -0.609,0 -0.609,-0.367 v -1.441 c 0,-0.848 0.633,-1.235 1.137,-1.235 0.515,0 0.601,0.411 0.601,0.844 v 1.832 c 0,0.367 -0.098,0.367 -0.601,0.367 v 0.258 c 0.339,-0.023 0.695,-0.023 0.906,-0.023 0.234,0 0.574,0 0.914,0.023 v -0.258 c -0.516,0 -0.61,0 -0.61,-0.367 z m 5.543,-2.382 c 0,-0.305 0.024,-0.387 0.661,-0.387 h 0.187 V 81.75 c -0.637,0.023 -0.66,0.023 -1.211,0.023 -0.562,0 -0.574,0 -1.207,-0.023 v 0.258 h 0.188 c 0.632,0 0.656,0.082 0.656,0.387 v 4.156 c 0,0.304 -0.024,0.39 -0.656,0.39 h -0.188 v 0.258 c 0.633,-0.023 0.645,-0.023 1.207,-0.023 0.551,0 0.574,0 1.211,0.023 v -0.258 h -0.187 c -0.637,0 -0.661,-0.086 -0.661,-0.39 z m 3.102,-0.528 C 94.961,81.75 94.949,81.75 94.785,81.75 h -1.328 v 0.258 h 0.223 c 0.14,0 0.211,0 0.367,0.012 0.211,0.023 0.223,0.035 0.223,0.187 v 4.133 c 0,0.211 0,0.601 -0.813,0.601 v 0.258 c 0.363,-0.023 0.731,-0.023 0.941,-0.023 0.211,0 0.586,0 0.938,0.023 v -0.258 c -0.797,0 -0.797,-0.39 -0.797,-0.601 v -4.074 l 3.445,4.816 c 0.071,0.094 0.094,0.117 0.164,0.117 0.141,0 0.141,-0.082 0.141,-0.222 v -4.383 c 0,-0.199 0,-0.586 0.809,-0.586 V 81.75 c -0.364,0.023 -0.739,0.023 -0.95,0.023 -0.199,0 -0.574,0 -0.937,-0.023 v 0.258 c 0.809,0 0.809,0.387 0.809,0.586 v 3.418 z m 6.262,1.996 c -0.504,-0.117 -0.879,-0.515 -0.879,-1.008 0,-0.531 0.457,-1.035 1.16,-1.035 1.375,0 1.562,1.293 1.598,1.598 0.023,0.082 0.023,0.141 0.128,0.141 0.129,0 0.129,-0.059 0.129,-0.211 v -1.563 c 0,-0.129 0,-0.211 -0.105,-0.211 -0.059,0 -0.082,0.024 -0.129,0.117 l -0.281,0.446 c -0.399,-0.446 -0.918,-0.563 -1.352,-0.563 -0.949,0 -1.652,0.715 -1.652,1.539 0,0.61 0.34,0.938 0.492,1.09 0.293,0.281 0.551,0.352 1.418,0.551 0.684,0.168 0.801,0.191 1.07,0.461 0.082,0.094 0.282,0.363 0.282,0.75 0,0.551 -0.422,1.14 -1.176,1.14 -0.879,0 -1.793,-0.425 -1.84,-1.539 0,-0.128 0,-0.175 -0.117,-0.175 -0.129,0 -0.129,0.058 -0.129,0.211 v 1.562 c 0,0.117 0,0.199 0.105,0.199 0.059,0 0.071,-0.011 0.129,-0.093 0.035,-0.047 0.059,-0.118 0.282,-0.461 0.503,0.449 1.089,0.554 1.57,0.554 1,0 1.668,-0.789 1.668,-1.644 0,-0.692 -0.446,-1.399 -1.266,-1.598 z m 5.32,1.34 c 0,-0.765 -0.129,-1.668 -0.621,-2.609 -0.387,-0.739 -1.117,-1.383 -1.258,-1.383 -0.082,0 -0.105,0.059 -0.105,0.094 0,0.035 0,0.047 0.093,0.14 1.118,1.067 1.375,2.524 1.375,3.758 0,2.289 -0.953,3.379 -1.363,3.742 -0.105,0.11 -0.105,0.11 -0.105,0.157 0,0.035 0.023,0.093 0.105,0.093 0.129,0 0.527,-0.414 0.586,-0.484 1.07,-1.113 1.293,-2.547 1.293,-3.508 z"
       style="fill:#000000;fill-opacity:1;fill-rule:nonzero;stroke:none"
       transform="scale(1.3333333)" />
    <path
       id="path14"
       d="m 184.6,-123.809 v 77.215 c 0,2.207 1.787,3.992 3.993,3.992 h 77.216 c 2.202,0 3.99,-1.785 3.99,-3.992 v -77.215 c 0,-2.203 -1.788,-3.992 -3.99,-3.992 h -77.216 c -2.206,0 -3.993,1.789 -3.993,3.992 z"
       style="fill:#ccccff;fill-opacity:1;fill-rule:nonzero;stroke:#000000;stroke-width:0.399248;stroke-linecap:butt;stroke-linejoin:miter;stroke-miterlimit:10;stroke-dasharray:none;stroke-opacity:1"
       transform="scale(1.3316267,-1.3333333)" />
    <path
       id="path15"
       d="m 202.207,93 c 0.188,-0.574 0.543,-0.809 1.141,-0.82 v -0.352 c -0.516,0.024 -0.539,0.024 -1.071,0.024 -0.316,0 -0.961,0 -1.242,-0.024 v 0.352 c 0.727,0.011 0.938,0.398 0.938,0.632 0,0.059 -0.035,0.153 -0.059,0.235 l -1.816,5.683 -1.934,-6.023 c -0.012,-0.035 -0.035,-0.129 -0.035,-0.164 0,-0.363 0.633,-0.363 0.926,-0.363 v -0.352 c -0.293,0.024 -1.172,0.024 -1.524,0.024 -0.351,0 -1.078,0 -1.383,-0.024 v 0.352 c 0.633,0 0.797,0.035 0.926,0.246 0.082,0.164 0.176,0.527 0.328,0.961 l -1.714,5.343 -1.911,-5.964 c -0.058,-0.164 -0.058,-0.188 -0.058,-0.223 0,-0.363 0.609,-0.363 0.914,-0.363 v -0.352 c -0.27,0.024 -1.184,0.024 -1.512,0.024 -0.351,0 -1.078,0 -1.394,-0.024 v 0.352 c 0.644,0 0.878,0 1.019,0.457 l 2.367,7.398 c 0.059,0.176 0.106,0.223 0.211,0.223 0.106,0 0.164,-0.035 0.223,-0.211 l 1.984,-6.211 1.992,6.211 c 0.059,0.176 0.129,0.211 0.223,0.211 0.106,0 0.152,-0.047 0.211,-0.223 z m 6.676,4.098 c 0,-1.114 0,-1.446 -0.281,-1.832 -0.34,-0.469 -0.903,-0.539 -1.313,-0.539 -1.019,0 -1.5,0.773 -1.676,1.152 h -0.011 v -4.18 l -1.657,0.129 v 0.352 c 0.813,0 0.907,0.082 0.907,0.668 v 6.281 c 0,0.527 -0.129,0.527 -0.907,0.527 v 0.356 c 0.309,-0.024 0.953,-0.024 1.293,-0.024 0.34,0 0.985,0 1.301,0.024 v -0.356 c -0.762,0 -0.914,0 -0.914,-0.527 v -2.231 c 0,-1.257 0.832,-1.925 1.57,-1.925 0.739,0 0.914,0.609 0.914,1.339 v 2.817 c 0,0.527 -0.14,0.527 -0.914,0.527 v 0.356 c 0.317,-0.024 0.961,-0.024 1.289,-0.024 0.352,0 0.996,0 1.301,0.024 v -0.356 c -0.597,0 -0.89,0 -0.902,-0.351 z m 3.262,-4.461 c 0,-0.317 -0.247,-0.586 -0.575,-0.586 -0.316,0 -0.574,0.246 -0.574,0.574 0,0.352 0.281,0.586 0.574,0.586 0.364,0 0.575,-0.316 0.575,-0.574 z m -1.645,2.218 v 0.352 c 0.766,0 0.871,0.07 0.871,0.66 v 3.262 c 0,0.527 -0.129,0.527 -0.906,0.527 v 0.356 c 0.328,-0.024 0.906,-0.024 1.258,-0.024 0.129,0 0.82,0 1.23,0.024 v -0.356 c -0.773,0 -0.832,-0.058 -0.832,-0.515 v -4.414 z m 4.828,0.34 h 1.688 v -0.351 h -1.688 v -2.196 h -0.258 c -0.011,1.129 -0.445,2.266 -1.539,2.313 v 0.234 h 1.024 v 3.336 c 0,1.324 0.89,1.598 1.523,1.598 0.75,0 1.149,-0.742 1.149,-1.598 v -0.695 h -0.27 v 0.66 c 0,0.867 -0.34,1.371 -0.809,1.371 -0.82,0 -0.82,-1.113 -0.82,-1.312 z m 7.133,2.032 c 0.258,0 0.281,0 0.281,-0.223 0,-1.211 -0.644,-2.336 -2.086,-2.336 -1.371,0 -2.414,1.234 -2.414,2.723 0,1.574 1.219,2.738 2.543,2.738 1.418,0 1.957,-1.293 1.957,-1.539 0,-0.082 -0.058,-0.129 -0.129,-0.129 -0.093,0 -0.117,0.07 -0.14,0.129 -0.317,0.996 -1.114,1.277 -1.618,1.277 -0.503,0 -1.71,-0.34 -1.71,-2.406 v -0.234 z m -3.305,-0.223 c 0.094,-1.879 1.149,-2.102 1.489,-2.102 1.277,0 1.347,1.692 1.359,2.102 z m 12.867,-1.066 c 1.184,-0.274 2.114,-1.036 2.114,-1.95 0,-1.164 -1.352,-2.16 -3.075,-2.16 h -3.574 v 0.352 h 0.235 c 0.867,0 0.902,0.117 0.902,0.562 v 6.352 c 0,0.445 -0.035,0.562 -0.902,0.562 h -0.235 v 0.356 c 0.27,-0.024 1.254,-0.024 1.606,-0.024 0.34,0 1.336,0 1.605,0.024 v -0.356 h -0.234 c -0.867,0 -0.903,-0.117 -0.903,-0.562 v -3.063 h 1.395 c 0.457,0 0.902,0.141 1.231,0.469 0.398,0.457 0.398,0.703 0.398,1.539 0,0.938 0,1.254 0.527,1.77 0.188,0.179 0.68,0.449 1.364,0.449 0.925,0 1.078,-1.035 1.078,-1.293 0,-0.07 0,-0.176 -0.129,-0.176 -0.117,0 -0.117,0.07 -0.129,0.188 -0.059,0.714 -0.41,1.046 -0.785,1.046 -0.551,0 -0.684,-0.566 -0.778,-1.199 -0.011,-0.082 -0.082,-0.597 -0.117,-0.89 -0.082,-0.602 -0.129,-0.989 -0.492,-1.364 -0.129,-0.129 -0.434,-0.457 -1.102,-0.632 z m -1.113,-0.145 h -1.348 V 92.66 c 0,-0.281 0,-0.422 0.258,-0.469 0.106,-0.011 0.469,-0.011 0.703,-0.011 0.973,0 2.497,0 2.497,1.808 0,1.043 -0.563,1.805 -2.11,1.805 z m 9.313,1.023 c 0,-0.644 0,-1.128 -0.528,-1.597 -0.422,-0.387 -0.961,-0.551 -1.488,-0.551 -0.973,0 -1.734,0.644 -1.734,1.422 0,0.351 0.234,0.515 0.504,0.515 0.293,0 0.492,-0.199 0.492,-0.492 0,-0.484 -0.434,-0.484 -0.61,-0.484 0.282,-0.504 0.856,-0.727 1.325,-0.727 0.55,0 1.254,0.457 1.254,1.539 v 0.481 c -2.403,0.035 -3.305,1.047 -3.305,1.961 0,0.949 1.101,1.246 1.828,1.246 0.785,0 1.324,-0.484 1.559,-1.059 0.046,0.563 0.41,1 0.925,1 0.258,0 0.95,-0.168 0.95,-1.129 v -0.668 h -0.27 v 0.668 c 0,0.68 -0.281,0.786 -0.457,0.786 -0.445,0 -0.445,-0.645 -0.445,-0.821 z m -0.785,1.504 c 0,1.172 -0.868,1.571 -1.383,1.571 -0.586,0 -1.078,-0.434 -1.078,-1.008 0,-1.586 2.039,-1.727 2.461,-1.75 z m 4.015,-6.621 -1.652,0.129 v 0.352 c 0.808,0 0.902,0.082 0.902,0.668 v 7.164 h 0.27 c 0.047,-0.098 0.375,-0.696 0.422,-0.778 0.281,0.434 0.796,0.895 1.558,0.895 1.375,0 2.582,-1.164 2.582,-2.703 0,-1.524 -1.125,-2.699 -2.453,-2.699 -0.656,0 -1.219,0.304 -1.629,0.808 z m 0.024,4.485 c 0,-0.223 0,-0.246 0.14,-0.438 0.281,-0.434 0.809,-0.773 1.395,-0.773 0.367,0 1.621,0.14 1.621,2.441 0,0.801 -0.129,1.305 -0.41,1.738 -0.235,0.364 -0.715,0.739 -1.317,0.739 -0.644,0 -1.066,-0.422 -1.265,-0.739 -0.164,-0.257 -0.164,-0.304 -0.164,-0.504 z m 6.484,-4.485 -1.652,0.129 v 0.352 c 0.808,0 0.902,0.082 0.902,0.668 v 7.164 h 0.269 c 0.047,-0.098 0.375,-0.696 0.422,-0.778 0.282,0.434 0.797,0.895 1.559,0.895 1.375,0 2.582,-1.164 2.582,-2.703 0,-1.524 -1.125,-2.699 -2.453,-2.699 -0.656,0 -1.219,0.304 -1.629,0.808 z m 0.023,4.485 c 0,-0.223 0,-0.246 0.141,-0.438 0.281,-0.434 0.809,-0.773 1.395,-0.773 0.363,0 1.621,0.14 1.621,2.441 0,0.801 -0.129,1.305 -0.411,1.738 -0.234,0.364 -0.714,0.739 -1.316,0.739 -0.644,0 -1.066,-0.422 -1.266,-0.739 -0.164,-0.257 -0.164,-0.304 -0.164,-0.504 z m 6.567,-3.547 c 0,-0.317 -0.246,-0.586 -0.574,-0.586 -0.317,0 -0.575,0.246 -0.575,0.574 0,0.352 0.282,0.586 0.575,0.586 0.363,0 0.574,-0.316 0.574,-0.574 z m -1.641,2.218 v 0.352 c 0.762,0 0.867,0.07 0.867,0.66 v 3.262 c 0,0.527 -0.129,0.527 -0.902,0.527 v 0.356 c 0.328,-0.024 0.902,-0.024 1.254,-0.024 0.129,0 0.82,0 1.23,0.024 v -0.356 c -0.773,0 -0.832,-0.058 -0.832,-0.515 v -4.414 z m 4.824,0.34 h 1.688 v -0.351 h -1.688 v -2.196 h -0.257 c -0.012,1.129 -0.446,2.266 -1.536,2.313 v 0.234 h 1.02 v 3.336 c 0,1.324 0.891,1.598 1.523,1.598 0.75,0 1.149,-0.742 1.149,-1.598 v -0.695 h -0.27 v 0.66 c 0,0.867 -0.34,1.371 -0.808,1.371 -0.821,0 -0.821,-1.113 -0.821,-1.312 z"
       style="fill:#000000;fill-opacity:1;fill-rule:nonzero;stroke:none"
       transform="scale(1.3333333)" />
    <path
       id="path16"
       d="M 191.453,72.688 V 52.273 c 0,-2.207 1.785,-3.992 3.988,-3.992 h 62.934 c 2.203,0 3.988,1.785 3.988,3.992 v 20.415 c 0,2.203 -1.785,3.992 -3.988,3.992 h -62.934 c -2.203,0 -3.988,-1.789 -3.988,-3.992 z"
       style="fill:#ccffcc;fill-opacity:0.8;fill-rule:nonzero;stroke:none"
       transform="scale(1.3333333)" />
    <path
       id="path17"
       d="m 191.699,-72.688 v 20.415 c 0,2.207 1.787,3.992 3.993,3.992 h 63.014 c 2.206,0 3.994,-1.785 3.994,-3.992 v -20.415 c 0,-2.203 -1.788,-3.992 -3.994,-3.992 h -63.014 c -2.206,0 -3.993,1.789 -3.993,3.992 z"
       style="fill:none;stroke:#808080;stroke-width:0.399248;stroke-linecap:butt;stroke-linejoin:miter;stroke-miterlimit:10;stroke-dasharray:0.399248, 0.998149;stroke-dashoffset:0;stroke-opacity:0.8"
       transform="scale(1.3316267,-1.3333333)" />
    <path
       id="path18"
       d="m 211.699,62.5 c 1.188,-0.273 2.113,-1.035 2.113,-1.949 0,-1.164 -1.347,-2.16 -3.074,-2.16 h -3.574 v 0.351 h 0.234 c 0.868,0 0.903,0.117 0.903,0.563 v 6.351 c 0,0.446 -0.035,0.563 -0.903,0.563 h -0.234 v 0.351 c 0.27,-0.023 1.254,-0.023 1.606,-0.023 0.339,0 1.335,0 1.605,0.023 v -0.351 h -0.234 c -0.868,0 -0.903,-0.117 -0.903,-0.563 v -3.062 h 1.395 c 0.457,0 0.902,0.14 1.23,0.468 0.399,0.458 0.399,0.704 0.399,1.54 0,0.937 0,1.253 0.531,1.769 0.187,0.176 0.68,0.449 1.359,0.449 0.926,0 1.078,-1.035 1.078,-1.293 0,-0.07 0,-0.175 -0.128,-0.175 -0.118,0 -0.118,0.07 -0.129,0.187 -0.059,0.715 -0.411,1.043 -0.785,1.043 -0.551,0 -0.68,-0.562 -0.774,-1.195 -0.012,-0.082 -0.082,-0.598 -0.117,-0.895 -0.082,-0.597 -0.129,-0.984 -0.492,-1.359 -0.129,-0.129 -0.438,-0.457 -1.106,-0.633 z m -1.113,-0.145 h -1.348 v -3.132 c 0,-0.282 0,-0.422 0.258,-0.469 0.106,-0.012 0.469,-0.012 0.703,-0.012 0.973,0 2.5,0 2.5,1.809 0,1.043 -0.566,1.804 -2.113,1.804 z m 7.281,-3.05 c 0,-0.446 0.035,-0.563 0.938,-0.563 h 0.261 v -0.351 c -0.285,0.023 -1.316,0.023 -1.668,0.023 -0.363,0 -1.406,0 -1.687,-0.023 v 0.351 h 0.258 c 0.902,0 0.937,0.117 0.937,0.563 v 6.351 c 0,0.446 -0.035,0.563 -0.937,0.563 h -0.258 v 0.351 c 0.281,-0.023 1.312,-0.023 1.676,-0.023 0.351,0 1.394,0 1.679,0.023 v -0.351 h -0.261 c -0.903,0 -0.938,-0.117 -0.938,-0.563 z m 4.121,2.277 c -0.609,-0.164 -1.148,-0.762 -1.148,-1.527 0,-0.832 0.668,-1.594 1.609,-1.594 1.957,0 2.227,1.949 2.297,2.465 0.024,0.14 0.024,0.187 0.141,0.187 0.129,0 0.129,-0.058 0.129,-0.281 v -2.418 c 0,-0.215 0,-0.273 -0.118,-0.273 -0.035,0 -0.082,0 -0.164,0.156 l -0.398,0.726 c -0.574,-0.738 -1.359,-0.882 -1.887,-0.882 -1.328,0 -2.301,1.07 -2.301,2.293 0,0.574 0.2,1.101 0.645,1.57 0.422,0.473 0.844,0.578 1.691,0.801 0.422,0.093 1.078,0.257 1.243,0.328 0.562,0.281 0.937,0.926 0.937,1.597 0,0.891 -0.633,1.747 -1.629,1.747 -0.539,0 -1.281,-0.129 -1.867,-0.645 -0.691,-0.621 -0.738,-1.492 -0.75,-1.879 -0.012,-0.105 -0.117,-0.105 -0.141,-0.105 -0.129,0 -0.129,0.07 -0.129,0.281 v 2.418 c 0,0.215 0,0.273 0.118,0.273 0.07,0 0.082,-0.023 0.175,-0.164 0.047,-0.097 0.293,-0.543 0.387,-0.718 0.434,0.48 1.184,0.882 2.219,0.882 1.336,0 2.308,-1.129 2.308,-2.457 0,-0.726 -0.281,-1.265 -0.597,-1.652 -0.446,-0.543 -0.985,-0.684 -1.453,-0.801 z m 11.821,-3.168 c 0,-0.215 0,-0.273 -0.118,-0.273 -0.07,0 -0.082,0.023 -0.152,0.144 l -0.586,0.949 c -0.539,-0.668 -1.359,-1.093 -2.215,-1.093 -2.195,0 -4.082,1.89 -4.082,4.336 0,2.476 1.91,4.343 4.082,4.343 1.957,0 3.071,-1.703 3.071,-3.031 0,-0.129 0,-0.199 -0.129,-0.199 -0.118,0 -0.129,0.058 -0.129,0.14 -0.117,1.903 -1.5,2.747 -2.66,2.747 -0.832,0 -3.121,-0.504 -3.121,-4 0,-3.465 2.253,-3.993 3.109,-3.993 1.254,0 2.355,1.067 2.59,2.864 0.035,0.152 0.035,0.187 0.176,0.187 0.164,0 0.164,-0.035 0.164,-0.281 z m 3.898,5.891 V 63.66 h -3.109 v 0.645 z m 7.973,-4.731 c 0.105,-0.293 0.316,-0.82 1.242,-0.832 v -0.351 c -0.61,0.023 -0.633,0.023 -1.102,0.023 -0.316,0 -0.914,0 -1.218,-0.023 v 0.351 c 0.609,0.012 0.796,0.34 0.796,0.586 0,0.07 0,0.094 -0.07,0.258 l -2.242,5.906 -2.356,-6.222 c -0.058,-0.129 -0.058,-0.153 -0.058,-0.188 0,-0.34 0.598,-0.34 0.89,-0.34 v -0.351 c -0.281,0.023 -1.195,0.023 -1.535,0.023 -0.339,0 -1.148,0 -1.441,-0.023 v 0.351 c 0.75,0 0.937,0 1.113,0.481 l 2.801,7.371 c 0.059,0.168 0.082,0.226 0.246,0.226 0.176,0 0.188,-0.035 0.27,-0.238 z"
       style="fill:#000000;fill-opacity:1;fill-rule:nonzero;stroke:none"
       transform="scale(1.3333333)" />
    <path
       id="path19"
       d="m 184.6,-156.199 h 85.199 v -85.199 H 184.6 Z"
       style="fill:#ffcccc;fill-opacity:1;fill-rule:nonzero;stroke:#000000;stroke-width:0.399248;stroke-linecap:butt;stroke-linejoin:miter;stroke-miterlimit:10;stroke-dasharray:none;stroke-opacity:1"
       transform="scale(1.3316267,-1.3333333)" />
    <path
       id="path20"
       d="m 195.203,176.602 c -0.609,-0.164 -1.148,-0.766 -1.148,-1.528 0,-0.832 0.668,-1.597 1.605,-1.597 1.957,0 2.227,1.949 2.297,2.464 0.023,0.141 0.023,0.192 0.141,0.192 0.129,0 0.129,-0.063 0.129,-0.285 v -2.418 c 0,-0.211 0,-0.27 -0.118,-0.27 -0.035,0 -0.082,0 -0.164,0.152 l -0.398,0.731 c -0.574,-0.742 -1.359,-0.883 -1.887,-0.883 -1.324,0 -2.297,1.07 -2.297,2.289 0,0.574 0.199,1.106 0.645,1.574 0.422,0.469 0.844,0.575 1.687,0.797 0.422,0.094 1.078,0.258 1.243,0.328 0.562,0.286 0.937,0.93 0.937,1.598 0,0.895 -0.633,1.75 -1.629,1.75 -0.539,0 -1.277,-0.129 -1.863,-0.644 -0.692,-0.625 -0.738,-1.493 -0.75,-1.879 -0.012,-0.106 -0.117,-0.106 -0.141,-0.106 -0.129,0 -0.129,0.071 -0.129,0.281 v 2.418 c 0,0.211 0,0.27 0.117,0.27 0.071,0 0.082,-0.024 0.176,-0.164 0.047,-0.094 0.293,-0.539 0.387,-0.715 0.434,0.481 1.184,0.879 2.215,0.879 1.336,0 2.308,-1.125 2.308,-2.453 0,-0.727 -0.281,-1.27 -0.597,-1.656 -0.446,-0.539 -0.985,-0.68 -1.453,-0.797 z m 6.625,1.183 h 2.027 c 1.395,0 2.676,-0.949 2.676,-2.16 0,-1.16 -1.164,-2.219 -2.769,-2.219 h -4.032 v 0.352 h 0.235 c 0.867,0 0.902,0.117 0.902,0.566 v 6.352 c 0,0.445 -0.035,0.562 -0.902,0.562 h -0.235 v 0.352 c 0.282,-0.024 1.266,-0.024 1.618,-0.024 0.351,0 1.336,0 1.617,0.024 v -0.352 h -0.235 c -0.867,0 -0.902,-0.117 -0.902,-0.562 z m -0.023,-0.293 v -3.25 c 0,-0.402 0.023,-0.484 0.55,-0.484 h 1.125 c 1.934,0 1.934,1.351 1.934,1.867 0,0.508 0,1.867 -1.945,1.867 z m 9.039,-4.238 c -0.047,-0.141 -0.074,-0.211 -0.25,-0.211 -0.164,0 -0.188,0.035 -0.246,0.223 l -2.496,7.164 c -0.176,0.492 -0.504,0.797 -1.266,0.808 v 0.352 c 0.726,-0.024 0.75,-0.024 1.148,-0.024 0.328,0 0.903,0 1.219,0.024 v -0.352 c -0.504,-0.011 -0.808,-0.258 -0.808,-0.597 0,-0.071 0,-0.094 0.058,-0.246 l 0.551,-1.598 h 3.016 l 0.656,1.879 c 0.07,0.152 0.07,0.176 0.07,0.211 0,0.351 -0.621,0.351 -0.914,0.351 v 0.352 c 0.27,-0.024 1.219,-0.024 1.559,-0.024 0.328,0 1.195,0 1.464,0.024 v -0.352 c -0.773,0 -0.996,0 -1.16,-0.48 z m -0.578,1.211 1.386,3.992 h -2.781 z m 5.23,-1.059 v 0.352 h 0.234 c 0.868,0 0.903,0.117 0.903,0.566 v 6.352 c 0,0.445 -0.035,0.562 -0.903,0.562 h -0.234 v 0.352 h 4.188 c 1.992,0 3.597,-1.797 3.597,-4.016 0,-2.312 -1.617,-4.168 -3.597,-4.168 z m 2.629,7.832 c -0.527,0 -0.551,-0.082 -0.551,-0.468 v -6.528 c 0,-0.402 0.024,-0.484 0.551,-0.484 h 1.254 c 0.996,0 1.781,0.484 2.273,1.269 0.539,0.844 0.539,2.055 0.539,2.535 0,0.672 -0.011,1.797 -0.691,2.688 -0.398,0.508 -1.113,0.988 -2.121,0.988 z m 12.211,-4.636 c -0.609,-0.164 -1.148,-0.766 -1.148,-1.528 0,-0.832 0.667,-1.597 1.605,-1.597 1.957,0 2.227,1.949 2.297,2.464 0.023,0.141 0.023,0.192 0.14,0.192 0.129,0 0.129,-0.063 0.129,-0.285 v -2.418 c 0,-0.211 0,-0.27 -0.117,-0.27 -0.035,0 -0.082,0 -0.164,0.152 l -0.398,0.731 c -0.575,-0.742 -1.36,-0.883 -1.887,-0.883 -1.324,0 -2.297,1.07 -2.297,2.289 0,0.574 0.199,1.106 0.645,1.574 0.421,0.469 0.843,0.575 1.687,0.797 0.422,0.094 1.078,0.258 1.242,0.328 0.563,0.286 0.938,0.93 0.938,1.598 0,0.895 -0.633,1.75 -1.629,1.75 -0.539,0 -1.277,-0.129 -1.863,-0.644 -0.692,-0.625 -0.739,-1.493 -0.75,-1.879 -0.012,-0.106 -0.118,-0.106 -0.141,-0.106 -0.129,0 -0.129,0.071 -0.129,0.281 v 2.418 c 0,0.211 0,0.27 0.117,0.27 0.071,0 0.082,-0.024 0.176,-0.164 0.047,-0.094 0.293,-0.539 0.387,-0.715 0.433,0.481 1.183,0.879 2.215,0.879 1.336,0 2.308,-1.125 2.308,-2.453 0,-0.727 -0.281,-1.27 -0.597,-1.656 -0.446,-0.539 -0.985,-0.68 -1.454,-0.797 z m 8.605,2.207 c 0.258,0 0.282,0 0.282,-0.223 0,-1.211 -0.645,-2.336 -2.086,-2.336 -1.371,0 -2.414,1.23 -2.414,2.723 0,1.574 1.218,2.734 2.543,2.734 1.418,0 1.957,-1.289 1.957,-1.539 0,-0.082 -0.059,-0.129 -0.129,-0.129 -0.094,0 -0.117,0.07 -0.141,0.129 -0.316,1 -1.113,1.281 -1.617,1.281 -0.504,0 -1.711,-0.34 -1.711,-2.406 v -0.234 z m -3.304,-0.223 c 0.093,-1.879 1.148,-2.102 1.488,-2.102 1.277,0 1.348,1.688 1.359,2.102 z m 9.25,0.094 c 0,-1.118 0,-1.446 -0.282,-1.832 -0.339,-0.469 -0.902,-0.539 -1.312,-0.539 -1.16,0 -1.605,0.996 -1.711,1.23 h -0.012 v -1.23 l -1.621,0.129 v 0.351 c 0.813,0 0.906,0.082 0.906,0.668 v 3.254 c 0,0.527 -0.128,0.527 -0.906,0.527 v 0.352 c 0.305,-0.024 0.953,-0.024 1.293,-0.024 0.34,0 0.985,0 1.301,0.024 v -0.352 c -0.762,0 -0.914,0 -0.914,-0.527 v -2.231 c 0,-1.257 0.832,-1.925 1.57,-1.925 0.739,0 0.914,0.609 0.914,1.336 v 2.82 c 0,0.527 -0.14,0.527 -0.914,0.527 v 0.352 c 0.317,-0.024 0.961,-0.024 1.289,-0.024 0.352,0 0.996,0 1.301,0.024 v -0.352 c -0.598,0 -0.891,0 -0.902,-0.351 z m 5.109,-2.149 c 0,-0.222 0,-0.281 -0.129,-0.281 -0.094,0 -0.316,0.27 -0.398,0.375 -0.375,-0.305 -0.75,-0.375 -1.125,-0.375 -1.453,0 -1.875,0.785 -1.875,1.441 0,0.141 0,0.555 0.445,0.977 0.387,0.34 0.797,0.422 1.348,0.527 0.656,0.129 0.808,0.164 1.113,0.41 0.211,0.176 0.363,0.434 0.363,0.778 0,0.515 -0.293,1.09 -1.347,1.09 -0.786,0 -1.36,-0.457 -1.629,-1.657 -0.047,-0.211 -0.047,-0.222 -0.059,-0.234 -0.023,-0.047 -0.07,-0.047 -0.105,-0.047 -0.129,0 -0.129,0.059 -0.129,0.27 v 1.633 c 0,0.21 0,0.269 0.117,0.269 0.059,0 0.07,-0.012 0.269,-0.258 0.059,-0.082 0.059,-0.105 0.247,-0.304 0.445,0.562 1.101,0.562 1.3,0.562 1.254,0 1.875,-0.691 1.875,-1.645 0,-0.644 -0.398,-1.019 -0.504,-1.124 -0.433,-0.376 -0.75,-0.446 -1.535,-0.586 -0.363,-0.082 -1.23,-0.25 -1.23,-0.965 0,-0.375 0.246,-0.926 1.324,-0.926 1.301,0 1.371,1.113 1.395,1.488 0.011,0.094 0.093,0.094 0.128,0.094 0.141,0 0.141,-0.059 0.141,-0.27 z m 6.18,2.5 c 0,-1.551 -1.172,-2.781 -2.555,-2.781 -1.43,0 -2.57,1.266 -2.57,2.781 0,1.528 1.199,2.676 2.558,2.676 1.407,0 2.567,-1.172 2.567,-2.676 z m -2.555,2.418 c -0.445,0 -0.984,-0.199 -1.324,-0.785 -0.328,-0.531 -0.34,-1.246 -0.34,-1.738 0,-0.457 0,-1.188 0.375,-1.727 0.328,-0.515 0.856,-0.715 1.277,-0.715 0.469,0 0.973,0.223 1.289,0.692 0.375,0.551 0.375,1.304 0.375,1.75 0,0.41 0,1.148 -0.316,1.715 -0.328,0.574 -0.879,0.808 -1.336,0.808 z m 4.918,-2.652 c 0,-1.164 0.481,-2.242 1.406,-2.242 0.094,0 0.117,0 0.164,0.011 -0.093,0.047 -0.293,0.118 -0.293,0.434 0,0.352 0.282,0.48 0.469,0.48 0.246,0 0.481,-0.152 0.481,-0.48 0,-0.352 -0.317,-0.691 -0.832,-0.691 -1.02,0 -1.372,1.101 -1.442,1.324 h -0.012 v -1.324 l -1.593,0.129 v 0.351 c 0.808,0 0.902,0.082 0.902,0.668 v 3.254 c 0,0.527 -0.129,0.527 -0.902,0.527 v 0.352 c 0.328,-0.024 0.984,-0.024 1.347,-0.024 0.317,0 1.172,0 1.442,0.024 v -0.352 h -0.235 c -0.879,0 -0.902,-0.129 -0.902,-0.562 z"
       style="fill:#000000;fill-opacity:1;fill-rule:nonzero;stroke:none"
       transform="scale(1.3333333)" />
    <path
       id="path21"
       d="m 229.196,-209.449 c 0,1.101 -0.892,1.996 -1.995,1.996 -1.103,0 -1.999,-0.895 -1.999,-1.996 0,-1.102 0.896,-1.996 1.999,-1.996 1.103,0 1.995,0.894 1.995,1.996 z"
       style="fill:#000000;fill-opacity:1;fill-rule:nonzero;stroke:#000000;stroke-width:0.399248;stroke-linecap:butt;stroke-linejoin:miter;stroke-miterlimit:10;stroke-dasharray:none;stroke-opacity:1"
       transform="scale(1.3316267,-1.3333333)" />
    <path
       id="path22"
       d="m 231.194,-209.449 c 0,2.203 -1.787,3.992 -3.993,3.992 -2.206,0 -3.993,-1.789 -3.993,-3.992 0,-2.207 1.787,-3.992 3.993,-3.992 2.206,0 3.993,1.785 3.993,3.992 z"
       style="fill:none;stroke:#000000;stroke-width:0.399248;stroke-linecap:butt;stroke-linejoin:miter;stroke-miterlimit:10;stroke-dasharray:none;stroke-opacity:1"
       transform="scale(1.3316267,-1.3333333)" />
    <path
       id="path23"
       d="m 247.164,-209.449 c 0,11.023 -8.937,19.961 -19.963,19.961 -11.026,0 -19.963,-8.938 -19.963,-19.961 0,-11.028 8.937,-19.965 19.963,-19.965 11.026,0 19.963,8.937 19.963,19.965 z"
       style="fill:none;stroke:#000000;stroke-width:0.399248;stroke-linecap:butt;stroke-linejoin:miter;stroke-miterlimit:10;stroke-dasharray:none;stroke-opacity:1"
       transform="scale(1.3316267,-1.3333333)" />
    <path
       id="path24"
       d="m 184.363,276.898 h 85.09 V 305.3 h -85.09 z"
       style="fill:#ffcccc;fill-opacity:0.8;fill-rule:nonzero;stroke:none"
       transform="scale(1.3333333)" />
    <path
       id="path25"
       d="m 184.6,-276.898 h 85.199 V -305.3 H 184.6 Z"
       style="fill:none;stroke:#808080;stroke-width:0.399248;stroke-linecap:butt;stroke-linejoin:miter;stroke-miterlimit:10;stroke-dasharray:2.99444, 2.99444;stroke-dashoffset:0;stroke-opacity:0.8"
       transform="scale(1.3316267,-1.3333333)" />
    <path
       id="path26"
       d="m 229.196,-291.102 c 0,1.106 -0.892,1.997 -1.995,1.997 -1.103,0 -1.999,-0.891 -1.999,-1.997 0,-1.101 0.896,-1.996 1.999,-1.996 1.103,0 1.995,0.895 1.995,1.996 z"
       style="fill:#000000;fill-opacity:1;fill-rule:nonzero;stroke:#000000;stroke-width:0.399248;stroke-linecap:butt;stroke-linejoin:miter;stroke-miterlimit:10;stroke-dasharray:none;stroke-opacity:1"
       transform="scale(1.3316267,-1.3333333)" />
    <path
       id="path27"
       d="m 231.194,-291.102 c 0,2.207 -1.787,3.997 -3.993,3.997 -2.206,0 -3.993,-1.79 -3.993,-3.997 0,-2.203 1.787,-3.992 3.993,-3.992 2.206,0 3.993,1.789 3.993,3.992 z"
       style="fill:none;stroke:#000000;stroke-width:0.399248;stroke-linecap:butt;stroke-linejoin:miter;stroke-miterlimit:10;stroke-dasharray:none;stroke-opacity:1"
       transform="scale(1.3316267,-1.3333333)" />
    <path
       id="path28"
       d="m 237.183,-291.102 c 0,5.516 -4.471,9.985 -9.982,9.985 -5.515,0 -9.981,-4.469 -9.981,-9.985 0,-5.511 4.466,-9.98 9.981,-9.98 5.511,0 9.982,4.469 9.982,9.98 z"
       style="fill:none;stroke:#000000;stroke-width:0.399248;stroke-linecap:butt;stroke-linejoin:miter;stroke-miterlimit:10;stroke-dasharray:none;stroke-opacity:1"
       transform="scale(1.3316267,-1.3333333)" />
    <path
       id="path29"
       d="m 184.363,312.398 h 85.09 V 340.8 h -85.09 z"
       style="fill:#ffcccc;fill-opacity:0.8;fill-rule:nonzero;stroke:none"
       transform="scale(1.3333333)" />
    <path
       id="path30"
       d="m 184.6,-312.398 h 85.199 V -340.8 H 184.6 Z"
       style="fill:none;stroke:#808080;stroke-width:0.399248;stroke-linecap:butt;stroke-linejoin:miter;stroke-miterlimit:10;stroke-dasharray:2.99444, 2.99444;stroke-dashoffset:0;stroke-opacity:0.8"
       transform="scale(1.3316267,-1.3333333)" />
    <path
       id="path31"
       d="m 229.196,-326.602 c 0,1.106 -0.892,1.997 -1.995,1.997 -1.103,0 -1.999,-0.891 -1.999,-1.997 0,-1.101 0.896,-1.996 1.999,-1.996 1.103,0 1.995,0.895 1.995,1.996 z"
       style="fill:#000000;fill-opacity:1;fill-rule:nonzero;stroke:#000000;stroke-width:0.399248;stroke-linecap:butt;stroke-linejoin:miter;stroke-miterlimit:10;stroke-dasharray:none;stroke-opacity:1"
       transform="scale(1.3316267,-1.3333333)" />
    <path
       id="path32"
       d="m 231.194,-326.602 c 0,2.207 -1.787,3.997 -3.993,3.997 -2.206,0 -3.993,-1.79 -3.993,-3.997 0,-2.203 1.787,-3.992 3.993,-3.992 2.206,0 3.993,1.789 3.993,3.992 z"
       style="fill:none;stroke:#000000;stroke-width:0.399248;stroke-linecap:butt;stroke-linejoin:miter;stroke-miterlimit:10;stroke-dasharray:none;stroke-opacity:1"
       transform="scale(1.3316267,-1.3333333)" />
    <path
       id="path33"
       d="m 237.183,-326.602 c 0,5.516 -4.471,9.985 -9.982,9.985 -5.515,0 -9.981,-4.469 -9.981,-9.985 0,-5.511 4.466,-9.98 9.981,-9.98 5.511,0 9.982,4.469 9.982,9.98 z"
       style="fill:none;stroke:#000000;stroke-width:0.399248;stroke-linecap:butt;stroke-linejoin:miter;stroke-miterlimit:10;stroke-dasharray:none;stroke-opacity:1"
       transform="scale(1.3316267,-1.3333333)" />
    <path
       id="path34"
       d="m 184.363,347.898 h 85.09 V 376.3 h -85.09 z"
       style="fill:#ffcccc;fill-opacity:0.8;fill-rule:nonzero;stroke:none"
       transform="scale(1.3333333)" />
    <path
       id="path35"
       d="m 184.6,-347.898 h 85.199 V -376.3 H 184.6 Z"
       style="fill:none;stroke:#808080;stroke-width:0.399248;stroke-linecap:butt;stroke-linejoin:miter;stroke-miterlimit:10;stroke-dasharray:2.99444, 2.99444;stroke-dashoffset:0;stroke-opacity:0.8"
       transform="scale(1.3316267,-1.3333333)" />
    <path
       id="path36"
       d="m 229.196,-362.102 c 0,1.106 -0.892,1.997 -1.995,1.997 -1.103,0 -1.999,-0.891 -1.999,-1.997 0,-1.101 0.896,-1.996 1.999,-1.996 1.103,0 1.995,0.895 1.995,1.996 z"
       style="fill:#000000;fill-opacity:1;fill-rule:nonzero;stroke:#000000;stroke-width:0.399248;stroke-linecap:butt;stroke-linejoin:miter;stroke-miterlimit:10;stroke-dasharray:none;stroke-opacity:1"
       transform="scale(1.3316267,-1.3333333)" />
    <path
       id="path37"
       d="m 231.194,-362.102 c 0,2.207 -1.787,3.997 -3.993,3.997 -2.206,0 -3.993,-1.79 -3.993,-3.997 0,-2.203 1.787,-3.992 3.993,-3.992 2.206,0 3.993,1.789 3.993,3.992 z"
       style="fill:none;stroke:#000000;stroke-width:0.399248;stroke-linecap:butt;stroke-linejoin:miter;stroke-miterlimit:10;stroke-dasharray:none;stroke-opacity:1"
       transform="scale(1.3316267,-1.3333333)" />
    <path
       id="path38"
       d="m 237.183,-362.102 c 0,5.516 -4.471,9.985 -9.982,9.985 -5.515,0 -9.981,-4.469 -9.981,-9.985 0,-5.511 4.466,-9.98 9.981,-9.98 5.511,0 9.982,4.469 9.982,9.98 z"
       style="fill:none;stroke:#000000;stroke-width:0.399248;stroke-linecap:butt;stroke-linejoin:miter;stroke-miterlimit:10;stroke-dasharray:none;stroke-opacity:1"
       transform="scale(1.3316267,-1.3333333)" />
    <path
       id="path39"
       d="m 162.281,387.852 v -2.032 c 0,-1.398 -0.953,-2.675 -2.16,-2.675 -1.16,0 -2.215,1.16 -2.215,2.769 v 4.039 h 0.352 v -0.234 c 0,-0.867 0.117,-0.907 0.562,-0.907 h 6.344 c 0.445,0 0.563,0.04 0.563,0.907 v 0.234 h 0.351 c -0.023,-0.281 -0.023,-1.269 -0.023,-1.621 0,-0.352 0,-1.336 0.023,-1.621 h -0.351 v 0.238 c 0,0.867 -0.118,0.903 -0.563,0.903 z m -0.293,0.023 h -3.25 c -0.398,0 -0.48,-0.023 -0.48,-0.551 v -1.129 c 0,-1.937 1.347,-1.937 1.863,-1.937 0.504,0 1.867,0 1.867,1.949 z m 1.535,-10.566 c -1.546,0 -2.781,1.175 -2.781,2.558 0,1.434 1.27,2.571 2.781,2.571 1.524,0 2.672,-1.196 2.672,-2.559 0,-1.406 -1.172,-2.57 -2.672,-2.57 z m 2.415,2.558 c 0,0.445 -0.2,0.988 -0.786,1.328 -0.527,0.328 -1.242,0.34 -1.734,0.34 -0.457,0 -1.184,0 -1.723,-0.375 -0.519,-0.328 -0.718,-0.859 -0.718,-1.281 0,-0.469 0.222,-0.973 0.695,-1.289 0.551,-0.379 1.301,-0.379 1.746,-0.379 0.41,0 1.148,0 1.711,0.32 0.574,0.328 0.809,0.879 0.809,1.336 z m -4.915,-6.863 c -0.222,0 -0.281,0 -0.281,0.129 0,0.097 0.27,0.32 0.375,0.402 -0.305,0.375 -0.375,0.75 -0.375,1.125 0,1.457 0.789,1.879 1.446,1.879 0.14,0 0.55,0 0.972,-0.445 0.34,-0.387 0.422,-0.797 0.528,-1.352 0.128,-0.656 0.164,-0.808 0.41,-1.113 0.175,-0.211 0.433,-0.363 0.773,-0.363 0.516,0 1.09,0.293 1.09,1.347 0,0.789 -0.457,1.364 -1.652,1.633 -0.211,0.047 -0.223,0.047 -0.235,0.059 -0.047,0.023 -0.047,0.07 -0.047,0.105 0,0.129 0.059,0.129 0.27,0.129 h 1.629 c 0.211,0 0.269,0 0.269,-0.117 0,-0.059 -0.011,-0.07 -0.257,-0.27 -0.083,-0.058 -0.106,-0.058 -0.305,-0.246 0.562,-0.445 0.562,-1.105 0.562,-1.304 0,-1.254 -0.691,-1.879 -1.64,-1.879 -0.645,0 -1.02,0.398 -1.125,0.507 -0.375,0.434 -0.446,0.75 -0.586,1.536 -0.082,0.363 -0.246,1.234 -0.961,1.234 -0.375,0 -0.93,-0.246 -0.93,-1.328 0,-1.301 1.117,-1.371 1.492,-1.395 0.094,-0.011 0.094,-0.097 0.094,-0.132 0,-0.141 -0.059,-0.141 -0.269,-0.141 z m 0,-4.625 c -0.222,0 -0.281,0 -0.281,0.129 0,0.094 0.27,0.316 0.375,0.398 -0.305,0.379 -0.375,0.754 -0.375,1.129 0,1.457 0.789,1.879 1.446,1.879 0.14,0 0.55,0 0.972,-0.445 0.34,-0.391 0.422,-0.801 0.528,-1.352 0.128,-0.656 0.164,-0.808 0.41,-1.117 0.175,-0.211 0.433,-0.363 0.773,-0.363 0.516,0 1.09,0.293 1.09,1.351 0,0.785 -0.457,1.364 -1.652,1.633 -0.211,0.047 -0.223,0.047 -0.235,0.059 -0.047,0.023 -0.047,0.07 -0.047,0.105 0,0.129 0.059,0.129 0.27,0.129 h 1.629 c 0.211,0 0.269,0 0.269,-0.117 0,-0.059 -0.011,-0.07 -0.257,-0.27 -0.083,-0.058 -0.106,-0.058 -0.305,-0.246 0.562,-0.449 0.562,-1.105 0.562,-1.304 0,-1.258 -0.691,-1.879 -1.64,-1.879 -0.645,0 -1.02,0.398 -1.125,0.504 -0.375,0.437 -0.446,0.753 -0.586,1.539 -0.082,0.363 -0.246,1.234 -0.961,1.234 -0.375,0 -0.93,-0.246 -0.93,-1.328 0,-1.305 1.117,-1.375 1.492,-1.399 0.094,-0.011 0.094,-0.093 0.094,-0.128 0,-0.141 -0.059,-0.141 -0.269,-0.141 z m -2.308,-2.77 c -0.317,0 -0.586,0.246 -0.586,0.575 0,0.316 0.246,0.574 0.574,0.574 0.352,0 0.586,-0.281 0.586,-0.574 0,-0.364 -0.316,-0.575 -0.574,-0.575 z m 2.215,1.645 h 0.351 c 0,-0.766 0.071,-0.871 0.66,-0.871 h 3.258 c 0.528,0 0.528,0.129 0.528,0.906 h 0.351 c -0.023,-0.328 -0.023,-0.906 -0.023,-1.258 0,-0.129 0,-0.82 0.023,-1.234 h -0.351 c 0,0.777 -0.059,0.836 -0.516,0.836 h -4.41 z m -3.153,-4.82 0.129,1.656 h 0.352 c 0,-0.813 0.082,-0.906 0.668,-0.906 h 7.152 v -0.27 c -0.094,-0.047 -0.691,-0.375 -0.773,-0.422 0.433,-0.281 0.89,-0.801 0.89,-1.562 0,-1.375 -1.16,-2.582 -2.695,-2.582 -1.523,0 -2.699,1.125 -2.699,2.453 0,0.656 0.304,1.222 0.812,1.633 z m 4.481,-0.024 c -0.223,0 -0.246,0 -0.434,-0.14 -0.437,-0.282 -0.777,-0.813 -0.777,-1.399 0,-0.363 0.141,-1.621 2.441,-1.621 0.797,0 1.301,0.129 1.735,0.414 0.363,0.234 0.738,0.715 0.738,1.313 0,0.644 -0.422,1.07 -0.738,1.269 -0.258,0.164 -0.305,0.164 -0.504,0.164 z m -4.481,-6.551 0.129,1.653 h 0.352 c 0,-0.809 0.082,-0.903 0.668,-0.903 h 6.273 c 0.528,0 0.528,0.129 0.528,0.903 h 0.351 c -0.023,-0.328 -0.023,-0.914 -0.023,-1.278 0,-0.351 0,-0.953 0.023,-1.293 h -0.351 c 0,0.766 0,0.918 -0.528,0.918 z m 5.524,-5.797 c 0,-0.257 0,-0.281 -0.223,-0.281 -1.207,0 -2.336,0.649 -2.336,2.09 0,1.375 1.235,2.418 2.723,2.418 1.57,0 2.73,-1.219 2.73,-2.547 0,-1.418 -1.289,-1.961 -1.535,-1.961 -0.082,0 -0.129,0.059 -0.129,0.129 0,0.094 0.071,0.117 0.129,0.141 0.996,0.32 1.278,1.117 1.278,1.621 0,0.504 -0.34,1.715 -2.403,1.715 h -0.234 z m -0.223,3.313 c -1.879,-0.094 -2.101,-1.152 -2.101,-1.492 0,-1.278 1.691,-1.348 2.101,-1.36 z m -5.324,-12.473 c -0.141,0.047 -0.211,0.071 -0.211,0.246 0,0.164 0.035,0.188 0.223,0.247 l 7.152,2.5 c 0.492,0.175 0.797,0.503 0.809,1.269 h 0.351 c -0.023,-0.73 -0.023,-0.754 -0.023,-1.152 0,-0.328 0,-0.903 0.023,-1.223 h -0.351 c -0.012,0.508 -0.258,0.813 -0.598,0.813 -0.07,0 -0.094,0 -0.246,-0.059 l -1.594,-0.551 v -3.019 l 1.875,-0.657 c 0.152,-0.07 0.176,-0.07 0.211,-0.07 0.352,0 0.352,0.621 0.352,0.914 h 0.351 c -0.023,-0.269 -0.023,-1.219 -0.023,-1.562 0,-0.328 0,-1.196 0.023,-1.465 h -0.351 c 0,0.773 0,0.996 -0.481,1.16 z m 1.207,0.575 3.988,-1.387 v 2.781 z m 4.328,-6.727 c -1.16,0 -2.242,-0.48 -2.242,-1.406 0,-0.094 0,-0.117 0.012,-0.164 0.046,0.093 0.117,0.293 0.437,0.293 0.352,0 0.481,-0.282 0.481,-0.473 0,-0.246 -0.153,-0.48 -0.481,-0.48 -0.355,0 -0.695,0.316 -0.695,0.835 0,1.02 1.105,1.372 1.328,1.442 v 0.012 h -1.328 l 0.129,1.597 h 0.351 c 0,-0.808 0.082,-0.902 0.672,-0.902 h 3.246 c 0.528,0 0.528,0.129 0.528,0.902 h 0.351 c -0.023,-0.328 -0.023,-0.984 -0.023,-1.351 0,-0.317 0,-1.172 0.023,-1.442 h -0.351 v 0.235 c 0,0.879 -0.129,0.902 -0.563,0.902 z m 0,-4.559 c -1.16,0 -2.242,-0.484 -2.242,-1.41 0,-0.093 0,-0.117 0.012,-0.164 0.046,0.094 0.117,0.293 0.437,0.293 0.352,0 0.481,-0.281 0.481,-0.469 0,-0.246 -0.153,-0.48 -0.481,-0.48 -0.355,0 -0.695,0.316 -0.695,0.832 0,1.019 1.105,1.375 1.328,1.445 v 0.012 h -1.328 l 0.129,1.594 h 0.351 c 0,-0.809 0.082,-0.903 0.672,-0.903 h 3.246 c 0.528,0 0.528,0.129 0.528,0.903 h 0.351 c -0.023,-0.328 -0.023,-0.985 -0.023,-1.348 0,-0.316 0,-1.176 0.023,-1.445 h -0.351 v 0.234 c 0,0.883 -0.129,0.906 -0.563,0.906 z M 162.891,323 c -0.645,0 -1.125,0 -1.598,0.527 -0.387,0.422 -0.551,0.961 -0.551,1.493 0,0.972 0.645,1.734 1.422,1.734 0.352,0 0.516,-0.234 0.516,-0.504 0,-0.293 -0.2,-0.492 -0.492,-0.492 -0.481,0 -0.481,0.433 -0.481,0.609 -0.508,-0.281 -0.73,-0.855 -0.73,-1.324 0,-0.555 0.461,-1.258 1.539,-1.258 h 0.48 c 0.035,2.406 1.043,3.313 1.957,3.313 0.949,0 1.242,-1.106 1.242,-1.832 0,-0.789 -0.48,-1.328 -1.054,-1.563 0.562,-0.047 0.996,-0.41 0.996,-0.926 0,-0.261 -0.164,-0.953 -1.125,-0.953 h -0.668 v 0.27 h 0.668 c 0.679,0 0.785,0.281 0.785,0.457 0,0.449 -0.645,0.449 -0.82,0.449 z m 1.5,0.785 c 1.171,0 1.57,0.867 1.57,1.387 0,0.586 -0.434,1.078 -1.008,1.078 -1.582,0 -1.723,-2.043 -1.746,-2.465 z m -2.309,-6.551 c -0.801,-0.328 -0.812,-0.894 -0.812,-1.117 h -0.352 c 0.023,0.356 0.023,0.52 0.023,0.906 0,0.27 0,0.293 -0.023,0.961 h 0.352 c 0.023,-0.445 0.296,-0.55 0.519,-0.55 0.106,0 0.164,0.023 0.281,0.07 l 3.012,1.223 -3.246,1.335 c -0.164,0.071 -0.246,0.071 -0.258,0.071 -0.308,0 -0.308,-0.422 -0.308,-0.656 h -0.352 c 0.023,0.304 0.023,0.89 0.023,1.234 0,0.445 0,0.469 -0.023,1.16 h 0.352 c 0,-0.703 0.058,-0.797 0.437,-0.949 l 4.371,-1.785 c 1.266,0.527 1.289,0.527 1.383,0.574 0.363,0.199 0.824,0.527 0.824,1.07 0,0.364 -0.223,0.598 -0.223,0.598 0,0 -0.05,-0.422 -0.46,-0.422 -0.293,0 -0.446,0.223 -0.446,0.445 0,0.2 0.117,0.457 0.469,0.457 0.449,0 0.895,-0.445 0.895,-1.078 0,-0.672 -0.59,-1.164 -1.34,-1.48 z m 1.441,-10.738 c -1.546,0 -2.781,1.172 -2.781,2.559 0,1.429 1.27,2.57 2.781,2.57 1.524,0 2.672,-1.199 2.672,-2.559 0,-1.41 -1.172,-2.57 -2.672,-2.57 z m 2.415,2.559 c 0,0.445 -0.2,0.984 -0.786,1.324 -0.527,0.332 -1.242,0.344 -1.734,0.344 -0.457,0 -1.184,0 -1.723,-0.379 -0.519,-0.328 -0.718,-0.856 -0.718,-1.278 0,-0.468 0.222,-0.976 0.695,-1.293 0.551,-0.375 1.301,-0.375 1.746,-0.375 0.41,0 1.148,0 1.711,0.317 0.574,0.328 0.809,0.883 0.809,1.34 z m -4.668,-4.985 v -1.363 h -0.352 v 1.387 h -1.395 c -1.078,0 -1.628,-0.551 -1.628,-1.047 0,-0.094 0.023,-0.281 0.093,-0.422 0.012,0.047 0.129,0.352 0.469,0.352 0.281,0 0.469,-0.2 0.469,-0.469 0,-0.293 -0.188,-0.481 -0.481,-0.481 -0.445,0 -0.785,0.434 -0.785,1.008 0,0.836 0.645,1.785 1.863,1.785 h 1.395 v 0.93 h 0.352 v -0.93 h 3.929 c 0.528,0 0.528,0.129 0.528,0.907 h 0.351 c -0.023,-0.332 -0.023,-0.989 -0.023,-1.352 0,-0.316 0,-1.176 0.023,-1.445 h -0.351 v 0.234 c 0,0.883 -0.129,0.906 -0.563,0.906 z m -0.176,-7.933 c -0.164,0.609 -0.762,1.148 -1.524,1.148 -0.832,0 -1.593,-0.668 -1.593,-1.605 0,-1.961 1.945,-2.231 2.461,-2.305 0.14,-0.023 0.187,-0.023 0.187,-0.141 0,-0.129 -0.059,-0.129 -0.281,-0.129 h -2.414 c -0.211,0 -0.27,0 -0.27,0.118 0,0.035 0,0.082 0.152,0.164 l 0.727,0.402 c -0.738,0.574 -0.879,1.359 -0.879,1.891 0,1.324 1.067,2.3 2.285,2.3 0.575,0 1.102,-0.199 1.575,-0.648 0.468,-0.422 0.574,-0.844 0.796,-1.687 0.094,-0.426 0.258,-1.083 0.329,-1.247 0.281,-0.562 0.925,-0.937 1.593,-0.937 0.891,0 1.746,0.633 1.746,1.629 0,0.543 -0.129,1.281 -0.644,1.867 -0.621,0.695 -1.488,0.742 -1.875,0.754 -0.106,0.012 -0.106,0.117 -0.106,0.141 0,0.128 0.071,0.128 0.282,0.128 h 2.414 c 0.211,0 0.269,0 0.269,-0.117 0,-0.07 -0.023,-0.082 -0.164,-0.175 -0.094,-0.047 -0.539,-0.297 -0.715,-0.391 0.481,-0.434 0.879,-1.184 0.879,-2.219 0,-1.336 -1.125,-2.312 -2.449,-2.312 -0.727,0 -1.266,0.281 -1.652,0.597 -0.539,0.449 -0.68,0.989 -0.801,1.457 z m 1.187,-6.633 v -2.031 c 0,-1.399 -0.953,-2.68 -2.16,-2.68 -1.16,0 -2.215,1.164 -2.215,2.773 v 4.039 h 0.352 v -0.234 c 0,-0.871 0.117,-0.906 0.562,-0.906 h 6.344 c 0.445,0 0.563,0.035 0.563,0.906 v 0.234 h 0.351 c -0.023,-0.285 -0.023,-1.269 -0.023,-1.621 0,-0.351 0,-1.339 0.023,-1.621 h -0.351 v 0.235 c 0,0.871 -0.118,0.906 -0.563,0.906 z m -0.293,0.023 h -3.25 c -0.398,0 -0.48,-0.023 -0.48,-0.554 v -1.125 c 0,-1.938 1.347,-1.938 1.863,-1.938 0.504,0 1.867,0 1.867,1.949 z m -4.234,-9.054 c -0.141,0.047 -0.211,0.07 -0.211,0.246 0,0.164 0.035,0.187 0.223,0.25 l 7.152,2.5 c 0.492,0.176 0.797,0.504 0.809,1.265 h 0.351 c -0.023,-0.726 -0.023,-0.75 -0.023,-1.148 0,-0.328 0,-0.906 0.023,-1.223 h -0.351 c -0.012,0.504 -0.258,0.813 -0.598,0.813 -0.07,0 -0.094,0 -0.246,-0.059 l -1.594,-0.555 v -3.015 l 1.875,-0.656 c 0.152,-0.075 0.176,-0.075 0.211,-0.075 0.352,0 0.352,0.625 0.352,0.918 h 0.351 c -0.023,-0.269 -0.023,-1.222 -0.023,-1.562 0,-0.328 0,-1.195 0.023,-1.469 h -0.351 c 0,0.777 0,1 -0.481,1.164 z m 1.207,0.578 3.988,-1.387 v 2.781 z m -1.055,-5.235 h 0.352 v -0.234 c 0,-0.871 0.117,-0.906 0.562,-0.906 h 6.344 c 0.445,0 0.563,0.035 0.563,0.906 v 0.234 h 0.351 v -4.191 c 0,-1.996 -1.793,-3.605 -4.008,-3.605 -2.312,0 -4.164,1.621 -4.164,3.605 z m 7.821,-2.628 c 0,0.527 -0.082,0.55 -0.469,0.55 h -6.52 c -0.398,0 -0.48,-0.023 -0.48,-0.55 v -1.258 c 0,-1 0.48,-1.785 1.265,-2.278 0.844,-0.539 2.055,-0.539 2.536,-0.539 0.668,0 1.793,0.012 2.683,0.692 0.504,0.398 0.985,1.113 0.985,2.125 z m -4.704,-9.758 c -0.222,0 -0.281,0 -0.281,0.129 0,0.093 0.27,0.316 0.375,0.398 -0.305,0.375 -0.375,0.75 -0.375,1.129 0,1.453 0.789,1.879 1.446,1.879 0.14,0 0.55,0 0.972,-0.449 0.34,-0.387 0.422,-0.797 0.528,-1.348 0.128,-0.66 0.164,-0.813 0.41,-1.117 0.175,-0.211 0.433,-0.363 0.773,-0.363 0.516,0 1.09,0.292 1.09,1.351 0,0.785 -0.457,1.359 -1.652,1.629 -0.211,0.047 -0.223,0.047 -0.235,0.059 -0.047,0.023 -0.047,0.07 -0.047,0.105 0,0.133 0.059,0.133 0.27,0.133 h 1.629 c 0.211,0 0.269,0 0.269,-0.121 0,-0.059 -0.011,-0.071 -0.257,-0.27 -0.083,-0.058 -0.106,-0.058 -0.305,-0.246 0.562,-0.445 0.562,-1.101 0.562,-1.301 0,-1.257 -0.691,-1.879 -1.64,-1.879 -0.645,0 -1.02,0.399 -1.125,0.504 -0.375,0.434 -0.446,0.75 -0.586,1.539 -0.082,0.364 -0.246,1.231 -0.961,1.231 -0.375,0 -0.93,-0.246 -0.93,-1.324 0,-1.305 1.117,-1.375 1.492,-1.399 0.094,-0.011 0.094,-0.094 0.094,-0.129 0,-0.14 -0.059,-0.14 -0.269,-0.14 z"
       style="fill:#000000;fill-opacity:1;fill-rule:nonzero;stroke:none"
       transform="scale(1.3333333)" />
    <path
       id="path40"
       d="m 227.201,-383.398 v -21.301"
       style="fill:none;stroke:#000000;stroke-width:0.399248;stroke-linecap:butt;stroke-linejoin:miter;stroke-miterlimit:10;stroke-dasharray:0.399248, 3.99258;stroke-dashoffset:0;stroke-opacity:1"
       transform="scale(1.3316267,-1.3333333)" />
    <path
       id="path41"
       d="m 298.198,-48.281 h 85.203 v -28.398 h -85.203 z"
       style="fill:#ffe6cc;fill-opacity:1;fill-rule:nonzero;stroke:#808080;stroke-width:0.399248;stroke-linecap:butt;stroke-linejoin:miter;stroke-miterlimit:10;stroke-dasharray:none;stroke-opacity:1"
       transform="scale(1.3316267,-1.3333333)" />
    <path
       id="path42"
       d="m 331.66,62.77 h 2.028 c 1.398,0 2.675,-0.954 2.675,-2.161 0,-1.164 -1.16,-2.218 -2.769,-2.218 h -4.032 v 0.351 h 0.235 c 0.867,0 0.902,0.117 0.902,0.563 v 6.351 c 0,0.446 -0.035,0.563 -0.902,0.563 h -0.235 v 0.351 c 0.282,-0.023 1.266,-0.023 1.618,-0.023 0.351,0 1.336,0 1.617,0.023 v -0.351 h -0.235 c -0.867,0 -0.902,-0.117 -0.902,-0.563 z m -0.023,-0.293 v -3.254 c 0,-0.399 0.023,-0.481 0.551,-0.481 h 1.124 c 1.938,0 1.938,1.348 1.938,1.867 0,0.504 0,1.868 -1.949,1.868 z m 12.199,1.031 h -0.258 c -0.117,1.199 -0.269,2.711 -2.367,2.711 h -1.043 c -0.527,0 -0.551,-0.082 -0.551,-0.469 v -6.434 c 0,-0.433 0.024,-0.574 1.067,-0.574 h 0.363 v -0.351 c -0.352,0.023 -1.406,0.023 -1.817,0.023 -0.363,0 -1.429,0 -1.714,-0.023 v 0.351 h 0.238 c 0.867,0 0.902,0.117 0.902,0.563 v 6.351 c 0,0.446 -0.035,0.563 -0.902,0.563 h -0.238 v 0.351 h 6.015 z m 7.32,0 h -0.258 c -0.117,1.199 -0.269,2.711 -2.367,2.711 h -1.043 c -0.527,0 -0.55,-0.082 -0.55,-0.469 v -6.434 c 0,-0.433 0.023,-0.574 1.066,-0.574 h 0.363 v -0.351 c -0.351,0.023 -1.406,0.023 -1.816,0.023 -0.363,0 -1.434,0 -1.715,-0.023 v 0.351 h 0.234 c 0.871,0 0.907,0.117 0.907,0.563 v 6.351 c 0,0.446 -0.036,0.563 -0.907,0.563 h -0.234 v 0.351 h 6.016 z"
       style="fill:#000000;fill-opacity:1;fill-rule:nonzero;stroke:none"
       transform="scale(1.3333333)" />
    <path
       id="path43"
       d="m 424.734,96.945 h -0.269 c -0.281,1.867 -0.574,2.711 -2.594,2.711 h -1.629 c -0.527,0 -0.551,-0.082 -0.551,-0.468 v -3.239 h 1.09 c 1.149,0 1.278,0.375 1.278,1.406 h 0.269 v -3.156 h -0.269 c 0,1.031 -0.129,1.406 -1.278,1.406 h -1.09 v -2.921 c 0,-0.399 0.024,-0.481 0.551,-0.481 h 1.594 c 1.762,0 2.125,0.598 2.312,2.324 h 0.258 l -0.304,-2.675 h -6.508 v 0.351 h 0.234 c 0.867,0 0.902,0.117 0.902,0.563 v 6.328 c 0,0.445 -0.035,0.562 -0.902,0.562 h -0.234 v 0.356 h 6.66 z m 2.34,-1.75 h 1.692 v -0.351 h -1.692 v -2.196 h -0.258 c -0.011,1.129 -0.445,2.266 -1.535,2.313 v 0.234 h 1.02 v 3.336 c 0,1.324 0.89,1.598 1.523,1.598 0.754,0 1.153,-0.742 1.153,-1.598 v -0.695 h -0.27 v 0.66 c 0,0.867 -0.34,1.371 -0.812,1.371 -0.821,0 -0.821,-1.113 -0.821,-1.312 z m 7.875,1.903 c 0,-1.114 0,-1.446 -0.281,-1.832 -0.34,-0.469 -0.902,-0.539 -1.313,-0.539 -1.019,0 -1.5,0.773 -1.675,1.152 h -0.012 v -4.18 l -1.656,0.129 v 0.352 c 0.808,0 0.902,0.082 0.902,0.668 v 6.281 c 0,0.527 -0.129,0.527 -0.902,0.527 v 0.356 c 0.304,-0.024 0.949,-0.024 1.289,-0.024 0.344,0 0.988,0 1.304,0.024 v -0.356 c -0.761,0 -0.914,0 -0.914,-0.527 v -2.231 c 0,-1.257 0.832,-1.925 1.571,-1.925 0.738,0 0.914,0.609 0.914,1.339 v 2.817 c 0,0.527 -0.141,0.527 -0.914,0.527 v 0.356 c 0.316,-0.024 0.961,-0.024 1.289,-0.024 0.351,0 0.996,0 1.301,0.024 v -0.356 c -0.598,0 -0.891,0 -0.903,-0.351 z m 5.77,0.129 c 0.258,0 0.281,0 0.281,-0.223 0,-1.211 -0.645,-2.336 -2.086,-2.336 -1.375,0 -2.418,1.234 -2.418,2.723 0,1.574 1.219,2.738 2.547,2.738 1.418,0 1.957,-1.293 1.957,-1.539 0,-0.082 -0.059,-0.129 -0.129,-0.129 -0.094,0 -0.117,0.07 -0.141,0.129 -0.316,0.996 -1.113,1.277 -1.617,1.277 -0.504,0 -1.715,-0.34 -1.715,-2.406 v -0.234 z m -3.309,-0.223 c 0.094,-1.879 1.152,-2.102 1.492,-2.102 1.278,0 1.348,1.692 1.36,2.102 z m 5.922,0.211 c 0,-1.16 0.48,-2.242 1.41,-2.242 0.094,0 0.117,0 0.164,0.011 -0.094,0.047 -0.293,0.118 -0.293,0.434 0,0.352 0.282,0.484 0.469,0.484 0.246,0 0.48,-0.156 0.48,-0.484 0,-0.352 -0.316,-0.691 -0.832,-0.691 -1.023,0 -1.375,1.105 -1.445,1.328 h -0.012 v -1.328 l -1.593,0.128 v 0.352 c 0.808,0 0.902,0.082 0.902,0.672 v 3.25 c 0,0.527 -0.129,0.527 -0.902,0.527 v 0.356 c 0.328,-0.024 0.984,-0.024 1.347,-0.024 0.317,0 1.172,0 1.442,0.024 v -0.356 h -0.235 c -0.879,0 -0.902,-0.129 -0.902,-0.562 z m 7.887,-0.117 c 0,-1.114 0,-1.446 -0.281,-1.832 -0.34,-0.469 -0.903,-0.539 -1.313,-0.539 -1.16,0 -1.605,0.996 -1.711,1.234 h -0.012 v -1.234 l -1.621,0.128 v 0.352 c 0.809,0 0.903,0.082 0.903,0.672 v 3.25 c 0,0.527 -0.129,0.527 -0.903,0.527 v 0.356 c 0.305,-0.024 0.949,-0.024 1.289,-0.024 0.344,0 0.989,0 1.305,0.024 v -0.356 c -0.762,0 -0.914,0 -0.914,-0.527 v -2.231 c 0,-1.257 0.832,-1.925 1.57,-1.925 0.739,0 0.914,0.609 0.914,1.339 v 2.817 c 0,0.527 -0.14,0.527 -0.914,0.527 v 0.356 c 0.317,-0.024 0.961,-0.024 1.289,-0.024 0.352,0 0.996,0 1.301,0.024 v -0.356 c -0.598,0 -0.891,0 -0.902,-0.351 z m 5.765,0.129 c 0.258,0 0.282,0 0.282,-0.223 0,-1.211 -0.645,-2.336 -2.086,-2.336 -1.371,0 -2.414,1.234 -2.414,2.723 0,1.574 1.218,2.738 2.543,2.738 1.418,0 1.957,-1.293 1.957,-1.539 0,-0.082 -0.059,-0.129 -0.129,-0.129 -0.094,0 -0.117,0.07 -0.141,0.129 -0.316,0.996 -1.113,1.277 -1.617,1.277 -0.504,0 -1.711,-0.34 -1.711,-2.406 v -0.234 z m -3.304,-0.223 c 0.093,-1.879 1.148,-2.102 1.488,-2.102 1.277,0 1.348,1.692 1.359,2.102 z m 5.933,-1.809 h 1.688 v -0.351 h -1.688 v -2.196 h -0.258 c -0.011,1.129 -0.449,2.266 -1.539,2.313 v 0.234 h 1.02 v 3.336 c 0,1.324 0.894,1.598 1.527,1.598 0.75,0 1.149,-0.742 1.149,-1.598 v -0.695 h -0.27 v 0.66 c 0,0.867 -0.34,1.371 -0.808,1.371 -0.821,0 -0.821,-1.113 -0.821,-1.312 z"
       style="fill:#000000;fill-opacity:1;fill-rule:nonzero;stroke:none"
       transform="scale(1.3333333)" />
    <path
       id="path44"
       d="m 151.355,137.934 c 0,-0.211 0,-0.27 -0.117,-0.27 -0.07,0 -0.082,0.024 -0.152,0.141 l -0.586,0.949 c -0.539,-0.668 -1.363,-1.09 -2.219,-1.09 -2.191,0 -4.078,1.887 -4.078,4.332 0,2.477 1.91,4.344 4.078,4.344 1.961,0 3.074,-1.703 3.074,-3.031 0,-0.129 0,-0.2 -0.128,-0.2 -0.118,0 -0.129,0.059 -0.129,0.141 -0.118,1.902 -1.504,2.75 -2.664,2.75 -0.832,0 -3.118,-0.508 -3.118,-4.004 0,-3.465 2.25,-3.992 3.106,-3.992 1.254,0 2.359,1.066 2.594,2.863 0.035,0.153 0.035,0.188 0.175,0.188 0.164,0 0.164,-0.035 0.164,-0.282 z m 7.473,5.093 h -0.258 c -0.117,1.2 -0.269,2.711 -2.367,2.711 h -1.043 c -0.527,0 -0.551,-0.082 -0.551,-0.468 v -6.434 c 0,-0.434 0.024,-0.574 1.067,-0.574 h 0.363 v -0.352 c -0.351,0.024 -1.406,0.024 -1.816,0.024 -0.364,0 -1.434,0 -1.715,-0.024 v 0.352 h 0.234 c 0.871,0 0.906,0.117 0.906,0.562 v 6.352 c 0,0.445 -0.035,0.562 -0.906,0.562 h -0.234 v 0.356 h 6.015 z m 5.184,-1.949 c 0.176,-0.199 0.644,-0.633 0.832,-0.82 1.656,-1.633 1.996,-1.973 2.933,-1.996 v -0.352 c -0.339,0.024 -0.492,0.024 -1.031,0.024 -0.305,0 -1.012,0 -1.293,-0.024 v 0.352 c 0.258,0.011 0.469,0.117 0.469,0.386 0,0.176 -0.082,0.282 -0.352,0.528 l -3.644,3.535 v -3.863 c 0,-0.586 0.14,-0.586 1.136,-0.586 v -0.352 c -0.281,0.024 -1.265,0.024 -1.605,0.024 -0.363,0 -1.348,0 -1.629,-0.024 v 0.352 c 1.008,0 1.137,0 1.137,0.586 v 6.304 c 0,0.586 -0.129,0.586 -1.137,0.586 v 0.356 c 0.281,-0.024 1.266,-0.024 1.617,-0.024 0.352,0 1.336,0 1.617,0.024 v -0.356 c -0.996,0 -1.136,0 -1.136,-0.586 v -2.078 l 1.429,-1.371 2.204,3.309 c 0.058,0.07 0.105,0.152 0.129,0.222 0.023,0.047 0.035,0.106 0.035,0.176 0,0.328 -0.434,0.328 -0.621,0.328 v 0.356 c 0.281,-0.024 1.16,-0.024 1.503,-0.024 0.317,0 0.915,0 1.325,0.024 v -0.356 c -0.645,0 -0.844,-0.058 -1.231,-0.633 z"
       style="fill:#000000;fill-opacity:1;fill-rule:nonzero;stroke:none"
       transform="scale(1.3333333)" />
    <path
       id="path45"
       d="m 287.906,134.293 c -0.504,-0.117 -0.879,-0.516 -0.879,-1.012 0,-0.527 0.457,-1.031 1.161,-1.031 1.371,0 1.558,1.293 1.593,1.598 0.024,0.082 0.024,0.14 0.129,0.14 0.129,0 0.129,-0.058 0.129,-0.211 v -1.562 c 0,-0.129 0,-0.211 -0.105,-0.211 -0.059,0 -0.082,0.023 -0.129,0.117 l -0.282,0.445 c -0.398,-0.445 -0.914,-0.562 -1.347,-0.562 -0.949,0 -1.653,0.715 -1.653,1.539 0,0.609 0.34,0.937 0.493,1.09 0.293,0.281 0.55,0.351 1.418,0.551 0.679,0.164 0.796,0.187 1.066,0.461 0.082,0.093 0.281,0.363 0.281,0.75 0,0.55 -0.422,1.14 -1.172,1.14 -0.879,0 -1.793,-0.426 -1.839,-1.539 0,-0.129 0,-0.176 -0.118,-0.176 -0.129,0 -0.129,0.059 -0.129,0.211 v 1.563 c 0,0.117 0,0.199 0.106,0.199 0.059,0 0.07,-0.012 0.129,-0.094 0.035,-0.047 0.058,-0.117 0.281,-0.461 0.504,0.45 1.09,0.555 1.57,0.555 0.996,0 1.664,-0.789 1.664,-1.645 0,-0.691 -0.445,-1.398 -1.265,-1.597 z m 8.039,-1.316 c 0.117,-0.176 0.364,-0.528 1.032,-0.539 v -0.258 c -0.235,0.023 -0.645,0.023 -0.797,0.023 -0.246,0 -0.481,0 -0.868,-0.023 v 0.258 c 0.282,0.011 0.399,0.14 0.399,0.292 0,0.106 -0.047,0.188 -0.106,0.258 l -1.41,2.114 -1.558,-2.325 c -0.035,-0.058 -0.071,-0.105 -0.071,-0.152 0,-0.187 0.352,-0.187 0.528,-0.187 v -0.258 c -0.692,0.023 -0.703,0.023 -1.149,0.023 -0.445,0 -0.633,0 -1.066,-0.023 v 0.258 h 0.141 c 0.421,0 0.574,0.046 0.738,0.281 l 1.816,2.726 v 1.535 c 0,0.293 -0.012,0.387 -0.633,0.387 h -0.175 v 0.262 c 0.679,-0.024 0.703,-0.024 1.16,-0.024 0.504,0 0.527,0 1.164,0.024 v -0.262 h -0.176 c -0.625,0 -0.625,-0.105 -0.625,-0.363 v -1.559 z m 3.098,-0.68 c -0.082,-0.117 -0.094,-0.117 -0.258,-0.117 h -1.324 v 0.258 h 0.223 c 0.14,0 0.211,0 0.363,0.011 0.211,0.024 0.223,0.035 0.223,0.188 v 4.133 c 0,0.21 0,0.597 -0.809,0.597 v 0.262 c 0.363,-0.024 0.727,-0.024 0.937,-0.024 0.211,0 0.586,0 0.938,0.024 v -0.262 c -0.797,0 -0.797,-0.387 -0.797,-0.597 v -4.075 l 3.445,4.817 c 0.071,0.093 0.094,0.117 0.164,0.117 0.141,0 0.141,-0.082 0.141,-0.227 v -4.379 c 0,-0.199 0,-0.585 0.813,-0.585 v -0.258 c -0.368,0.023 -0.743,0.023 -0.954,0.023 -0.199,0 -0.574,0 -0.937,-0.023 v 0.258 c 0.809,0 0.809,0.386 0.809,0.585 v 3.418 z m 10.051,-0.082 c 0,-0.129 0,-0.211 -0.106,-0.211 -0.058,0 -0.07,0.012 -0.14,0.117 l -0.399,0.586 c -0.293,-0.305 -0.82,-0.703 -1.582,-0.703 -1.605,0 -2.945,1.289 -2.945,2.887 0,1.621 1.34,2.902 2.957,2.902 1.336,0 2.215,-1.059 2.215,-2.031 0,-0.082 0,-0.153 -0.129,-0.153 -0.094,0 -0.117,0.036 -0.117,0.118 -0.071,1.23 -1.055,1.808 -1.899,1.808 -0.679,0 -2.191,-0.426 -2.191,-2.644 0,-2.137 1.43,-2.618 2.191,-2.618 0.75,0 1.676,0.528 1.875,1.903 0.012,0.07 0.024,0.117 0.129,0.117 0.141,0 0.141,-0.047 0.141,-0.199 z"
       style="fill:#000000;fill-opacity:1;fill-rule:nonzero;stroke:none"
       transform="scale(1.3333333)" />
    <path
       id="path46"
       d="m 128.199,-62.48 h 56.002"
       style="fill:none;stroke:#000000;stroke-width:0.399248;stroke-linecap:butt;stroke-linejoin:miter;stroke-miterlimit:10;stroke-dasharray:none;stroke-opacity:1"
       transform="scale(1.3316267,-1.3333333)" />
    <path
       id="path47"
       d="m -130.077,64.875 c 0.38,-1.437 1.225,-2.117 2.077,-2.395 -0.852,-0.281 -1.697,-0.957 -2.077,-2.394"
       style="fill:none;stroke:#000000;stroke-width:0.399248;stroke-linecap:round;stroke-linejoin:round;stroke-miterlimit:10;stroke-dasharray:none;stroke-opacity:1"
       transform="scale(-1.3316267,1.3333333)" />
    <path
       id="path48"
       d="m 182.323,-60.086 c 0.38,-1.437 1.224,-2.113 2.077,-2.394 -0.853,-0.278 -1.697,-0.958 -2.077,-2.395"
       style="fill:none;stroke:#000000;stroke-width:0.399248;stroke-linecap:round;stroke-linejoin:round;stroke-miterlimit:10;stroke-dasharray:none;stroke-opacity:1"
       transform="scale(1.3316267,-1.3333333)" />
    <path
       id="path49"
       d="m 270.197,-62.48 h 28.001"
       style="fill:none;stroke:#000000;stroke-width:0.399248;stroke-linecap:butt;stroke-linejoin:miter;stroke-miterlimit:10;stroke-dasharray:none;stroke-opacity:1"
       transform="scale(1.3316267,-1.3333333)" />
    <path
       id="path50"
       d="m -272.075,64.875 c 0.379,-1.437 1.224,-2.117 2.077,-2.395 -0.853,-0.281 -1.698,-0.957 -2.077,-2.394"
       style="fill:none;stroke:#000000;stroke-width:0.399248;stroke-linecap:round;stroke-linejoin:round;stroke-miterlimit:10;stroke-dasharray:none;stroke-opacity:1"
       transform="scale(-1.3316267,1.3333333)" />
    <path
       id="path51"
       d="M 270.197,-95.852 H 414.241"
       style="fill:none;stroke:#000000;stroke-width:0.399248;stroke-linecap:butt;stroke-linejoin:miter;stroke-miterlimit:10;stroke-dasharray:none;stroke-opacity:1"
       transform="scale(1.3316267,-1.3333333)" />
    <path
       id="path52"
       d="m -272.075,98.246 c 0.379,-1.437 1.224,-2.117 2.077,-2.394 -0.853,-0.282 -1.698,-0.961 -2.077,-2.399"
       style="fill:none;stroke:#000000;stroke-width:0.399248;stroke-linecap:round;stroke-linejoin:round;stroke-miterlimit:10;stroke-dasharray:none;stroke-opacity:1"
       transform="scale(-1.3316267,1.3333333)" />
    <path
       id="path53"
       d="m 412.364,-93.453 c 0.379,-1.438 1.224,-2.117 2.077,-2.399 -0.853,-0.277 -1.698,-0.957 -2.077,-2.394"
       style="fill:none;stroke:#000000;stroke-width:0.399248;stroke-linecap:round;stroke-linejoin:round;stroke-miterlimit:10;stroke-dasharray:none;stroke-opacity:1"
       transform="scale(1.3316267,-1.3333333)" />
    <path
       id="path54"
       d="m 227.201,-127.801 v -28"
       style="fill:none;stroke:#000000;stroke-width:0.399248;stroke-linecap:butt;stroke-linejoin:miter;stroke-miterlimit:10;stroke-dasharray:none;stroke-opacity:1"
       transform="scale(1.3316267,-1.3333333)" />
    <path
       id="path55"
       d="m 153.926,229.595 c 0.379,-1.436 1.222,-2.116 2.074,-2.394 -0.852,-0.282 -1.695,-0.958 -2.074,-2.398"
       style="fill:none;stroke:#000000;stroke-width:0.399248;stroke-linecap:round;stroke-linejoin:round;stroke-miterlimit:10;stroke-dasharray:none;stroke-opacity:1"
       transform="matrix(0,1.3333333,1.3316267,0,0,0)" />
    <path
       id="path56"
       d="M 184.6,-209.449 H 71.001"
       style="fill:none;stroke:#000000;stroke-width:0.399248;stroke-linecap:butt;stroke-linejoin:miter;stroke-miterlimit:10;stroke-dasharray:none;stroke-opacity:1"
       transform="scale(1.3316267,-1.3333333)" />
    <path
       id="path57"
       d="m 71.001,-209.449 v 88.351"
       style="fill:none;stroke:#000000;stroke-width:0.399248;stroke-linecap:butt;stroke-linejoin:miter;stroke-miterlimit:10;stroke-dasharray:none;stroke-opacity:1"
       transform="scale(1.3316267,-1.3333333)" />
    <path
       id="path58"
       d="m -122.977,-68.603 c 0.379,-1.44 1.227,-2.116 2.079,-2.398 -0.852,-0.278 -1.7,-0.958 -2.079,-2.394"
       style="fill:none;stroke:#000000;stroke-width:0.399248;stroke-linecap:round;stroke-linejoin:round;stroke-miterlimit:10;stroke-dasharray:none;stroke-opacity:1"
       transform="matrix(0,-1.3333333,-1.3316267,0,0,0)" />
    <path
       id="path59"
       d="M 184.6,-124.676 V -142"
       style="fill:none;stroke:#000000;stroke-width:0.399248;stroke-linecap:butt;stroke-linejoin:miter;stroke-miterlimit:10;stroke-dasharray:none;stroke-opacity:1"
       transform="scale(1.3316267,-1.3333333)" />
    <path
       id="path60"
       d="M 184.6,-142 H 170.801"
       style="fill:none;stroke:#000000;stroke-width:0.399248;stroke-linecap:butt;stroke-linejoin:miter;stroke-miterlimit:10;stroke-dasharray:none;stroke-opacity:1"
       transform="scale(1.3316267,-1.3333333)" />
    <path
       id="path61"
       d="m -172.674,144.395 c 0.379,-1.438 1.224,-2.114 2.073,-2.395 -0.849,-0.281 -1.694,-0.957 -2.073,-2.395"
       style="fill:none;stroke:#000000;stroke-width:0.399248;stroke-linecap:round;stroke-linejoin:round;stroke-miterlimit:10;stroke-dasharray:none;stroke-opacity:1"
       transform="scale(-1.3316267,1.3333333)" />
    <path
       id="path62"
       d="M 227.201,-142 H 312.4"
       style="fill:none;stroke:#000000;stroke-width:0.399248;stroke-linecap:butt;stroke-linejoin:miter;stroke-miterlimit:10;stroke-dasharray:0.399248, 1.99629;stroke-dashoffset:0;stroke-opacity:1"
       transform="scale(1.3316267,-1.3333333)" />
    <path
       id="path63"
       d="M 312.4,-142 V -362.102"
       style="fill:none;stroke:#000000;stroke-width:0.399248;stroke-linecap:butt;stroke-linejoin:miter;stroke-miterlimit:10;stroke-dasharray:0.399248, 1.99629;stroke-dashoffset:0;stroke-opacity:1"
       transform="scale(1.3316267,-1.3333333)" />
    <path
       id="path64"
       d="M 312.4,-291.102 H 269.799"
       style="fill:none;stroke:#000000;stroke-width:0.399248;stroke-linecap:butt;stroke-linejoin:miter;stroke-miterlimit:10;stroke-dasharray:0.399248, 1.99629;stroke-dashoffset:0;stroke-opacity:1"
       transform="scale(1.3316267,-1.3333333)" />
    <path
       id="path65"
       d="M 312.4,-326.602 H 269.799"
       style="fill:none;stroke:#000000;stroke-width:0.399248;stroke-linecap:butt;stroke-linejoin:miter;stroke-miterlimit:10;stroke-dasharray:0.399248, 1.99629;stroke-dashoffset:0;stroke-opacity:1"
       transform="scale(1.3316267,-1.3333333)" />
    <path
       id="path66"
       d="M 312.4,-362.102 H 269.799"
       style="fill:none;stroke:#000000;stroke-width:0.399248;stroke-linecap:butt;stroke-linejoin:miter;stroke-miterlimit:10;stroke-dasharray:0.399248, 1.99629;stroke-dashoffset:0;stroke-opacity:1"
       transform="scale(1.3316267,-1.3333333)" />
    <path
       id="path67"
       d="m 312.4,-362.102 v -42.597"
       style="fill:none;stroke:#000000;stroke-width:0.399248;stroke-linecap:butt;stroke-linejoin:miter;stroke-miterlimit:10;stroke-dasharray:0.399248, 3.99258;stroke-dashoffset:0;stroke-opacity:1"
       transform="scale(1.3316267,-1.3333333)" />
    <path
       id="path68"
       d="M 141.998,-291.102 H 71.001"
       style="fill:none;stroke:#000000;stroke-width:0.399248;stroke-linecap:butt;stroke-linejoin:miter;stroke-miterlimit:10;stroke-dasharray:0.399248, 1.99629;stroke-dashoffset:0;stroke-opacity:1"
       transform="scale(1.3316267,-1.3333333)" />
    <path
       id="path69"
       d="M 141.998,-326.602 H 71.001"
       style="fill:none;stroke:#000000;stroke-width:0.399248;stroke-linecap:butt;stroke-linejoin:miter;stroke-miterlimit:10;stroke-dasharray:0.399248, 1.99629;stroke-dashoffset:0;stroke-opacity:1"
       transform="scale(1.3316267,-1.3333333)" />
    <path
       id="path70"
       d="M 141.998,-362.102 H 71.001"
       style="fill:none;stroke:#000000;stroke-width:0.399248;stroke-linecap:butt;stroke-linejoin:miter;stroke-miterlimit:10;stroke-dasharray:0.399248, 1.99629;stroke-dashoffset:0;stroke-opacity:1"
       transform="scale(1.3316267,-1.3333333)" />
    <path
       id="path71"
       d="m 71.001,-362.102 v 234.301"
       style="fill:none;stroke:#000000;stroke-width:0.399248;stroke-linecap:butt;stroke-linejoin:miter;stroke-miterlimit:10;stroke-dasharray:0.399248, 1.99629;stroke-dashoffset:0;stroke-opacity:1"
       transform="scale(1.3316267,-1.3333333)" />
    <path
       id="path72"
       d="m 71.001,-362.102 v -42.597"
       style="fill:none;stroke:#000000;stroke-width:0.399248;stroke-linecap:butt;stroke-linejoin:miter;stroke-miterlimit:10;stroke-dasharray:0.399248, 3.99258;stroke-dashoffset:0;stroke-opacity:1"
       transform="scale(1.3316267,-1.3333333)" />
    <path
       id="path73"
       d="m 162.32,291.938 c -3.597,-3.606 -8.875,-3.723 -11.785,-0.813 -2.976,2.984 -2.765,8.242 0.797,11.813 3.555,3.558 8.797,3.687 11.727,0.75 3.003,-3.004 2.769,-8.243 -0.739,-11.75 z m 0.434,11.421 c -1.992,1.996 -6.168,2.184 -10.328,-1.984 -4.141,-4.145 -3.356,-8.148 -1.586,-9.922 1.855,-1.855 5.84,-2.512 9.922,1.574 4.222,4.227 3.926,8.395 1.992,10.332 z m 11.801,-19.777 c 2.347,2.348 2.312,5.367 0.648,7.031 -0.894,0.895 -2.172,1.235 -3.391,0.977 -1.406,-0.281 -2.566,-1.305 -3.175,-1.914 l -6.801,-6.809 c -0.801,-0.801 -0.613,-0.988 0.598,-2.195 l -0.457,-0.461 c -0.457,0.555 -1.399,1.492 -1.938,2.031 -0.539,0.543 -1.477,1.481 -2.027,1.938 l 0.457,0.461 c 1.219,-1.223 1.406,-1.411 2.203,-0.614 l 6.719,6.727 c 2.523,2.527 6.203,2.387 8.234,0.355 2.285,-2.289 1.266,-5.941 -0.457,-7.668 l -6.66,-6.668 c -0.988,-0.988 -0.199,-1.984 0.316,-2.5 l -0.457,-0.461 c -0.367,0.461 -1.105,1.2 -1.539,1.633 -0.445,0.446 -1.183,1.188 -1.64,1.551 l 0.457,0.457 c 1.394,-1.398 2.226,-0.562 2.664,-0.129 z m 5.699,-21.555 -10.129,10.145 3.574,4.168 0.317,-0.32 c -2.684,-3.133 -2.942,-3.883 -0.246,-6.586 0.316,-0.317 0.835,-0.832 0.988,-0.938 0.387,-0.293 0.597,-0.082 0.996,0.316 l 9.508,9.524 c 0.633,0.633 0.761,0.879 -0.68,2.324 l -0.492,0.492 0.457,0.457 c 0.82,-0.843 1.676,-1.75 2.531,-2.605 0.871,-0.871 1.774,-1.727 2.617,-2.547 l -0.457,-0.461 -0.492,0.496 c -1.445,1.442 -1.691,1.313 -2.324,0.68 l -9.508,-9.524 c -0.375,-0.375 -0.598,-0.597 -0.34,-0.972 0.117,-0.164 0.621,-0.668 0.938,-0.988 2.683,-2.688 3.445,-2.442 6.578,0.25 l 0.316,-0.321 z m 1.648,-1.769 0.457,0.461 c 1.207,-1.211 1.395,-1.399 2.196,-0.602 l 9.484,9.5 c 0.785,0.785 0.598,0.973 -0.609,2.184 l 0.457,0.457 5.582,-5.59 c 2.812,-2.816 2.484,-7.676 -0.821,-10.988 -3.308,-3.309 -8.316,-3.864 -11.164,-1.008 z m 14.786,8.277 c -0.704,0.707 -0.833,0.649 -1.418,0.059 l -9.696,-9.707 c -0.597,-0.602 -0.656,-0.731 0.047,-1.434 l 1.957,-1.961 c 1.465,-1.469 5.008,-3.277 9.766,1.492 2.488,2.489 2.769,4.204 2.898,5.012 0.141,0.965 0.07,2.914 -1.594,4.578 z m 2.476,-25.812 c -0.328,-0.141 -0.41,-0.153 -0.574,0.011 -0.176,0.176 -0.176,0.27 -0.024,0.586 l 6.801,14.254 c 0.61,1.289 0.106,2.172 -0.504,2.781 l 0.457,0.457 c 0.282,-0.351 0.973,-1.042 1.313,-1.382 0.433,-0.438 1.137,-1.141 1.594,-1.528 l -0.457,-0.457 c -0.868,0.797 -1.547,0.352 -1.747,0.153 -0.164,-0.164 -0.222,-0.293 -0.293,-0.434 l -1.691,-3.547 4.598,-4.601 4.047,1.937 c 0.293,0.129 0.316,0.152 0.398,0.235 0.469,0.468 -0.281,1.218 -0.609,1.546 l 0.457,0.461 c 0.468,-0.543 1.382,-1.457 1.922,-1.996 0.457,-0.457 1.324,-1.328 1.793,-1.726 l -0.457,-0.457 c -0.938,0.937 -1.254,1.254 -2.122,0.832 z m 0.691,2.101 8.161,3.899 -4.27,4.273 z m 14.836,-17.273 -10.132,10.144 3.578,4.168 0.316,-0.32 c -2.687,-3.133 -2.945,-3.883 -0.246,-6.586 0.316,-0.316 0.832,-0.832 0.984,-0.937 0.387,-0.293 0.598,-0.082 0.997,0.316 l 9.511,9.519 c 0.633,0.637 0.762,0.883 -0.683,2.329 l -0.493,0.492 0.457,0.457 c 0.825,-0.844 1.68,-1.75 2.536,-2.606 0.867,-0.871 1.769,-1.726 2.613,-2.547 l -0.457,-0.46 -0.492,0.496 c -1.442,1.441 -1.688,1.312 -2.321,0.679 l -9.511,-9.523 c -0.375,-0.375 -0.598,-0.598 -0.34,-0.973 0.117,-0.164 0.621,-0.668 0.937,-0.988 2.688,-2.688 3.45,-2.441 6.578,0.25 l 0.317,-0.32 z m 18.926,-3.953 -0.316,0.316 c 2.195,2.973 3.367,4.594 0.269,7.691 l -2.437,2.442 c -0.692,0.695 -0.821,0.637 -1.406,0.047 l -4.844,-4.848 1.64,-1.644 c 1.657,-1.657 2.407,-1.207 3.86,0.246 l 0.316,-0.317 -4.562,-4.566 -0.317,0.316 c 1.457,1.457 1.903,2.207 0.246,3.864 l -1.64,1.644 -4.364,-4.367 c -0.597,-0.602 -0.644,-0.719 0.047,-1.41 l 2.407,-2.407 c 2.718,-2.722 4.113,-1.96 6.695,0.129 l 0.316,-0.316 -4.293,-3.453 -8.875,8.887 0.457,0.46 c 1.219,-1.222 1.407,-1.41 2.192,-0.624 l 9.453,9.464 c 0.785,0.786 0.598,0.973 -0.621,2.196 l 0.457,0.457 9.121,-9.133 z m -6.262,-8.848 0.457,0.457 c 1.208,-1.211 1.395,-1.398 2.192,-0.598 l 9.488,9.496 c 0.785,0.79 0.598,0.977 -0.609,2.184 l 0.457,0.461 5.578,-5.59 c 2.816,-2.816 2.488,-7.68 -0.82,-10.988 -3.305,-3.313 -8.313,-3.863 -11.16,-1.012 z m 14.786,8.277 c -0.703,0.703 -0.832,0.645 -1.418,0.059 l -9.7,-9.711 c -0.597,-0.598 -0.656,-0.727 0.047,-1.434 l 1.961,-1.961 c 1.465,-1.464 5.004,-3.273 9.766,1.493 2.484,2.488 2.769,4.203 2.898,5.015 0.141,0.961 0.071,2.91 -1.597,4.578 z m 2.882,-25.972 0.461,0.461 c 1.207,-1.211 1.395,-1.399 2.192,-0.602 l 9.484,9.5 c 0.785,0.785 0.598,0.973 -0.609,2.184 l 0.457,0.457 5.582,-5.59 c 2.816,-2.817 2.484,-7.676 -0.82,-10.988 -3.309,-3.309 -8.313,-3.864 -11.165,-1.008 z m 14.789,8.277 c -0.703,0.707 -0.832,0.648 -1.421,0.059 l -9.696,-9.707 c -0.597,-0.602 -0.656,-0.731 0.047,-1.434 l 1.957,-1.961 c 1.469,-1.469 5.008,-3.277 9.77,1.492 2.484,2.489 2.765,4.203 2.894,5.012 0.141,0.965 0.071,2.914 -1.593,4.578 z m 1.403,-21.977 c -0.797,-0.796 -0.586,-1.007 0.668,-2.265 l -0.457,-0.457 c -0.504,0.597 -1.406,1.504 -2.004,2.101 -0.598,0.598 -1.488,1.493 -2.098,2.008 l 0.457,0.457 c 1.266,-1.265 1.477,-1.476 2.274,-0.679 l 9.484,9.5 c 0.789,0.785 0.578,0.996 -0.691,2.265 l 0.457,0.457 c 0.527,-0.597 1.422,-1.492 2.019,-2.09 0.598,-0.597 1.5,-1.504 2.086,-2.019 l -0.457,-0.457 c -1.254,1.254 -1.465,1.465 -2.25,0.679 z m 7.269,-10.046 c -0.328,-0.141 -0.41,-0.153 -0.574,0.011 -0.176,0.176 -0.176,0.27 -0.023,0.586 l 6.801,14.254 c 0.609,1.289 0.105,2.172 -0.504,2.781 l 0.457,0.457 c 0.281,-0.351 0.972,-1.043 1.312,-1.382 0.434,-0.438 1.141,-1.141 1.598,-1.528 l -0.457,-0.457 c -0.871,0.797 -1.551,0.352 -1.75,0.153 -0.164,-0.164 -0.223,-0.293 -0.293,-0.434 l -1.688,-3.547 4.598,-4.601 4.043,1.937 c 0.293,0.129 0.316,0.152 0.398,0.234 0.469,0.469 -0.281,1.219 -0.609,1.547 l 0.457,0.461 c 0.469,-0.543 1.387,-1.457 1.926,-1.996 0.457,-0.457 1.324,-1.328 1.793,-1.726 l -0.457,-0.457 c -0.938,0.937 -1.254,1.253 -2.121,0.832 z m 0.692,2.101 8.164,3.899 -4.27,4.273 z m 24.144,-9.711 c -0.656,-0.656 -0.691,-0.808 0.399,-1.902 l -0.457,-0.457 c -0.387,0.457 -1.336,1.41 -1.805,1.879 -0.492,0.492 -1.879,1.832 -2.57,2.5 l 0.457,0.457 0.543,-0.539 c 1.5,-1.504 1.722,-1.352 2.367,-0.703 l 1.148,1.148 c 1.934,1.938 -0.187,4.367 -0.738,4.922 -1.805,1.805 -6.016,3.531 -10.59,-1.047 -4.582,-4.59 -2.883,-8.734 -1.183,-10.437 1.98,-1.985 5.136,-1.715 7.902,0.398 0.246,0.176 0.281,0.211 0.434,0.059 0.187,-0.188 0.152,-0.223 -0.165,-0.539 l -4.148,-4.157 c -0.316,-0.316 -0.352,-0.328 -0.445,-0.234 -0.082,0.082 -0.071,0.117 0,0.445 l 0.703,2.254 c -1.922,-0.234 -3.613,0.188 -4.973,1.551 -2.988,2.992 -3.07,8.359 0.551,11.988 3.59,3.59 8.934,3.613 12.02,0.527 1.418,-1.421 2.296,-3.312 1.839,-4.871 1.02,0.434 2.008,0.434 2.102,0.34 0.082,-0.082 0.07,-0.117 -0.246,-0.433 z m 6.242,-11.226 c 1.336,-1.996 1.618,-4.532 0.211,-5.942 -1.64,-1.644 -5.007,-1.281 -7.457,1.176 l -4.714,4.719 0.457,0.457 c 1.207,-1.207 1.394,-1.399 2.191,-0.598 l 9.488,9.496 c 0.785,0.789 0.598,0.977 -0.609,2.184 l 0.457,0.461 c 0.469,-0.543 1.383,-1.457 1.922,-1.996 0.539,-0.543 1.453,-1.457 2.004,-1.938 l -0.457,-0.457 c -1.207,1.207 -1.407,1.406 -2.192,0.621 l -4.609,-4.613 2.055,-2.055 c 1.007,-1.011 1.957,-1.164 2.437,-1.176 1.383,-0.023 1.852,0.446 3.047,1.645 1.176,1.172 1.773,1.773 2.898,1.844 1.371,0.058 2.344,-0.778 2.731,-1.164 1.289,-1.289 0.035,-2.946 -0.27,-3.25 -0.093,-0.094 -0.222,-0.227 -0.386,-0.059 -0.141,0.141 -0.047,0.258 0.023,0.328 1.055,1.219 0.926,2.125 0.387,2.664 -0.961,0.961 -2.168,-0.035 -3.352,-0.984 -0.422,-0.332 -0.715,-0.555 -1.136,-0.906 -0.989,-0.774 -2.407,-1.914 -5.126,-0.457 z m -1.585,1.277 -2.004,2.008 -4.703,-4.707 c -0.598,-0.598 -0.657,-0.727 0.046,-1.43 l 1.282,-1.281 c 1.453,-1.457 3.668,-2.641 5.84,-0.469 2.261,2.266 0.855,4.567 -0.461,5.879 z m 6.882,-18.863 c -0.328,-0.141 -0.41,-0.153 -0.574,0.011 -0.176,0.176 -0.176,0.27 -0.023,0.586 l 6.8,14.254 c 0.61,1.293 0.106,2.172 -0.503,2.785 l 0.457,0.457 c 0.281,-0.351 0.972,-1.046 1.312,-1.386 0.434,-0.434 1.137,-1.137 1.594,-1.528 l -0.457,-0.457 c -0.867,0.801 -1.547,0.352 -1.746,0.153 -0.164,-0.164 -0.223,-0.293 -0.293,-0.434 l -1.688,-3.547 4.594,-4.601 4.047,1.937 c 0.293,0.129 0.316,0.153 0.398,0.235 0.469,0.468 -0.281,1.222 -0.609,1.55 l 0.457,0.457 c 0.469,-0.539 1.383,-1.453 1.922,-1.996 0.457,-0.457 1.324,-1.324 1.793,-1.726 l -0.457,-0.457 c -0.938,0.941 -1.254,1.258 -2.121,0.836 z m 0.692,2.101 8.16,3.899 -4.27,4.273 z m 9.179,-11.164 c -0.375,-0.14 -0.41,-0.152 -0.773,0.211 l -2.25,2.254 0.457,0.457 c 1.207,-1.207 1.406,-1.406 2.203,-0.609 l 9.02,9.027 c 0.433,0.438 1.254,1.258 -0.153,2.668 l 0.457,0.457 c 0.375,-0.445 1.114,-1.187 1.547,-1.621 0.434,-0.434 1.172,-1.176 1.617,-1.551 l -0.457,-0.457 c -1.406,1.41 -2.226,0.586 -2.66,0.152 l -9.734,-9.746 0.023,-0.023 15.282,7.059 c 0.246,0.105 0.375,0.187 0.515,0.046 0.141,-0.14 0.071,-0.281 -0.023,-0.539 l -7.106,-15.429 0.012,-0.012 10.293,10.309 c 0.785,0.785 0.598,0.976 -0.609,2.183 l 0.457,0.457 c 0.433,-0.504 1.382,-1.453 1.898,-1.972 0.504,-0.504 1.469,-1.465 1.984,-1.911 l -0.457,-0.461 c -1.211,1.211 -1.41,1.411 -2.195,0.625 l -9.484,-9.5 c -0.797,-0.796 -0.598,-0.996 0.609,-2.207 l -0.457,-0.457 -2.23,2.231 c -0.375,0.375 -0.375,0.422 -0.211,0.773 l 6.496,14.09 z"
       style="fill:#ff0000;fill-opacity:1;fill-rule:nonzero;stroke:none"
       transform="scale(1.3333333)" />
  </g>
</svg>
